<svg id="Layer_1" data-name="Layer 1" xmlns="http://www.w3.org/2000/svg" viewBox="0 0 1000 1000"><title>university-of-central-punjab-Logo-Design-1</title><path d="M487.083,794.876l-.639-1a4.369,4.369,0,0,1-2.332.745c-1.65-.372-1.605-2.474-1.473-4.071l.125-1.375,1.1-12.461c.39-4.577.665-6.821,3.53-10.431l-.886-.736a4.788,4.788,0,0,1-3.4,1.322c-3.477-.32-6.67-2.271-9.509-4.054a13.563,13.563,0,0,1-9.108,2.262c-.506-.035-1.508-.2-1.508-.2l2.678,6,2.581,5.632s-7.406,6.155-8,12.958c-.346,3.92,2.084,7.042,4.781,9.614l10.253-6.989c.124,3.6,1.268,5.588,3.592,8.213Zm-14.653-15.3,3.77,2.013-.772,8.772-4.966,3.352c-2.138-2.3-4.089-5.029-3.806-8.293.24-2.678,1.934-7.929,2.289-7.751Zm4.648-8.072-.754,8.63-3.556-1.915-3.069-1.659-2.439-5.543-2.067-4.63Z" fill="#2e419a" fill-rule="evenodd"/><path d="M248.319,441.71l-1.5.736a3.7,3.7,0,0,1,.373,2.031c-.293,2.093-3.4,1.738-4.772,1.543L218.863,442.7l-1.871-.257c-6.555-.932-7.734-2.413-10.4-5.943l-1.268,1.135,3.051,3.885-5.987,6.067,7.228,9.171,1.234-.923-3.291-4.292,2.971-2.812,10.156,1.428a10.374,10.374,0,0,1,.647,5.818,10.17,10.17,0,0,1-3.033,5.384l-18.582-2.608-.141.994c1.738,1.791,1.977,4.763,1.631,7.149-.647,4.683-4.177,8.292-4.824,12.975-.532,6.91,6.412,9.216,11.894,9.987a5.46,5.46,0,0,0,1.09.071l.2-1.445c-3.6-.5-7.841-2.262-7.212-6.732.409-2.892,1.464-5.677,1.863-8.559a18.766,18.766,0,0,0,.195-3.5c4.816,10.156,9.969,18.449,22.076,20.152,10.378,1.454,21.038-4.834,22.546-15.646,1.162-8.284-1.357-13.845-5.685-20.7,4.417.47,7.157-.24,10-3.734Zm-3.788,23.335-14.554-2.058a9.937,9.937,0,0,1-.923-5.481,12.723,12.723,0,0,1,2.652-5.792l9.074,1.268c2.146,3.61,3.831,7.743,3.751,12.063M228.1,462.739l-7.841-1.1a10.8,10.8,0,0,0,2.581-5.366,13.022,13.022,0,0,0-.346-5.854l7.415,1.038a13.529,13.529,0,0,0-2.43,5.827,12.483,12.483,0,0,0,.621,5.455m-24.64-1.845,41.057,5.765c-.089.656-.1,1.242-.187,1.88a16.9,16.9,0,0,1-4.425,9.526,30.78,30.78,0,0,0-4.231-7.06c-2.12-2.652-3.743-3.095-6.989-3.556l-15.264-2.156-2.537-.346c-3.157-.443-5.446-1.419-7.424-4.053m34.866,18.493a20.2,20.2,0,0,1-14.262,3.139c-10-1.419-16.728-8.975-19.992-18.164,3.9,4.071,6.413,7.663,12.391,8.5l12.754,1.791c3.6.5,7.166,1.3,9.109,4.737" fill="#2e419a" fill-rule="evenodd"/><path d="M225.356,429.453l1.3-.5a3.7,3.7,0,0,1-.124-1.951c.434-1.322,2.022-1.038,3.335-.6.549.186,1.082.425,1.419.541L249,432.69l1.614,3.521,6.963-4.248-2.98-7.539-3.255,1.534L232.381,419.8,230,413.745l3.645-1.8,17.3,5.623c4.843,1.579,7.167,1.721,11.593-.816l-3.522-9.189-1.658.382c.266.851.843,1.658.55,2.554a1.578,1.578,0,0,1-1.534.958,11.081,11.081,0,0,1-3.433-.736l-1.038-.337-11.627-3.779c-4.356-1.41-5.952-2.394-7.841-6.457l-1.428.621,2.058,4.258-6.6,3.361,4.266,10.874c-3.521-1.144-5.4-.311-8.337,1.65Z" fill="#2e419a" fill-rule="evenodd"/><path d="M267.086,390.546l-1.481.293.772,2.741-2.493,1.126-20.532-9.162-1.056-3.166-6.98,3.5,1.863,7.441,3.033-1.445,16.284,7.255.665.3c1.916.852,3.531,1.73,3.442,4.08l.594.258a36.166,36.166,0,0,1,8.267-3.876Zm-37.215-7.805.842-1.543-5.056-8.861-2.652,5.42Z" fill="#2e419a" fill-rule="evenodd"/><path d="M253.242,367.136c-4.63-2.315-9.9,1.339-12.888-.32-1.756-1.055-2.1-3.414-2.385-5.312l-1.234.142c.018,4.168.719,8.9,4.737,11.113,4,2.226,5.659-.772,11.707,2.581l11.007,6.1,1.207.665c1.658.923,3.113,1.889,2.891,4.1l.7.39c2.661-4.514,6.59-7.087,11.441-8.789a25.743,25.743,0,0,1-.071-12.772l-15.344-8.506c-6.04-3.344-7.822-4.178-14.164-1.455Zm17.171,9.516-15.717-8.7-1.259-6.448c3.672-1.207,4.692-.639,8.062,1.232l15.717,8.7c-2.315,1.632-4.6,3.362-6.8,5.215" fill="#2e419a" fill-rule="evenodd"/><path d="M296.107,341.259l-1.25-.009-.151,6.271c-2.182,1.029-4.249,2.138-6.306,3.246l-5.419-3.947-1.091-17.064-14.458.47a128.628,128.628,0,0,1-2.474,15.654l.763.195c1.108-1.543,2.35-1.259,3.707-.284l1.065.781,10.421,7.557c1.942,1.419,4.178,3.042,3.885,5.8l.585.426a31.4,31.4,0,0,1,10.351-6.324Zm-15.068,4.16-12.595-9.153,12.071-.4Z" fill="#2e419a" fill-rule="evenodd"/><path d="M280.648,322.925l1.339.036.062-2.794c2.2-.266,3.176.514,4.843,2.022l10.865,9.783c1.792,1.6,3.113,3.291,2.678,5.73l.586.541c2.829-2.164,6.395-2.865,9.889-3.043l.594-11.317-1.552-.026-.292,4.248-4.329.9-15.184-13.677.053-3.876,6.812.373-.1-6.75-8.311-.443v8.913a10.818,10.818,0,0,0-7.734-.1Z" fill="#2e419a" fill-rule="evenodd"/><path d="M319.283,324.481l1.233-.062a10.478,10.478,0,0,1,3.4-7.034c1.907-1.791,4.31-2.838,7.84-3.432a24.274,24.274,0,0,1,3.468-11l-9.676-10.377-8.355,1.933-1.34-10.4c-.523-3.991-1.037-5.694-2.27-7.033-1.295-1.384-2.83-1.534-3.991-.443a2.006,2.006,0,0,0-.116,2.971c1.588,1.712,2.368.2,3.7,1.632.9.958.47,2.74-1.012,4.133a20.054,20.054,0,0,1-8.709,4.532c.479,4.133-.186,6.945-2.6,11.193l8.781,9.4,7.476-1.9Zm3.521-24.072,6.688,7.176c-3.114.825-4.994,1.685-6.537,3.131a12.343,12.343,0,0,0-3.025,4.115l-1.809-13.251Zm-10.59,2.413-6.643-7.14a14.482,14.482,0,0,0,7.122-3.45,18.652,18.652,0,0,0,1.978-2.147l1.534,11.8Z" fill="#2e419a" fill-rule="evenodd"/><path d="M351.78,290.351l-1.446-.47-.638,2.759-2.723-.222-13.534-17.952.62-3.281-7.8-.328-1.978,7.406,3.344.212,10.732,14.245.435.576c1.268,1.685,2.244,3.22,1.028,5.242l.391.514a36.525,36.525,0,0,1,9.117.6Zm-28.763-24.878,1.481-.931-.124-10.209-4.958,3.459Z" fill="#2e419a" fill-rule="evenodd"/><path d="M339.8,266.2l.63.976,2.634-1.7,10.013,15.433.754,1.161c1.277,1.952,2.1,3.761,1.1,5.961l.523.8a17.738,17.738,0,0,1,9.943-.3l2.989-9.579-1.534-.47-.9,2.741a38.425,38.425,0,0,0-4.275-.16L349.031,261.58l5.126-3.326-2.137-3.3-5.126,3.335-5.907-9.092Z" fill="#2e419a" fill-rule="evenodd"/><path d="M361.475,254.6l1.295.5a3.53,3.53,0,0,1,1.454-2c1.357-.674,2.3.736,2.927,2.049.257.514.452,1.073.612,1.392L374.815,271l.6,1.251c2.7,5.552-.746,9.1,1.268,13.215,1.809,3.734,5.659,3.805,9.064,2.138,2.023-.985,7.717-4.577,6.475-7.122a1.586,1.586,0,0,0-1.978-.745c-2.04,1-1.446,4.683-5.3,6.563-2.359,1.144-5.321,1.056-6.6-1.57-1.649-3.4,1.544-7.29,3.265-9.916,5.108-7.6,11.1-17.233,6.6-26.457a17.1,17.1,0,0,0-9.508-8.71l-5.481,11.5c-1.827-3.725-3.539-4.923-7.77-5.277Zm12.506-1.73,2.722-5.7a15.419,15.419,0,0,1,6.377,6.768,18.647,18.647,0,0,1-.549,16.461Z" fill="#2e419a" fill-rule="evenodd"/><path d="M431.818,225.476a33.041,33.041,0,0,1-12.533-1.649,28.353,28.353,0,0,1-8.062,8.709l4.825,15.779a43.787,43.787,0,0,1,1.277,5.171,4.038,4.038,0,0,1-.878,3.1l.257.825a24.684,24.684,0,0,1,14.28,1.419,41.442,41.442,0,0,1,8.4-8.585l-.532-1.739Zm-13.934,4.71,8.195.922,6.448,21.083-8.186-.922Z" fill="#2e419a" fill-rule="evenodd"/><path d="M462.373,245.551l-1.171-.745-1.881,2.147c-1.33-.7-2.722-1.4-4.106-2.023l-4.462-22.989,4.71-.922-.736-3.779-4.719.914-1.7-8.772,6.3.4.071-5.8-7.264-.372a81.186,81.186,0,0,1-6.12,7.051l1.73,8.852-2.785.55.727,3.778,2.785-.541,3.609,18.564c.462,2.368.985,5.073-1.046,6.8l.151.781a23.668,23.668,0,0,1,9.6,3.628Z" fill="#2e419a" fill-rule="evenodd"/><path d="M525.9,235.537a27.682,27.682,0,0,1-17.792,6.306l.639-36.444a39.348,39.348,0,0,0,10.625,3.822l6.741-6.128a33.822,33.822,0,0,1-15.362-4.134l-14.395,11.823-.266,15.424c-.053,3.2-.106,5.606-2.829,7.442a21.54,21.54,0,0,1-3.7-12.87c.132-7.778,4.594-12.718,10.35-17.357l-.647-.807c-9.181,4.488-15.433,12.612-15.611,23.087-.212,12,9.056,23.149,21.42,23.371,9.313.159,16.612-5.1,21.615-12.577Zm-18.741-30.963-.648,37.171a18.986,18.986,0,0,1-12.319-6.7c7.229-5.836,8.993-6.608,9.153-16.142l.2-11.193Z" fill="#2e419a" fill-rule="evenodd"/><path d="M552.92,246.784l-.558-1.126-5.659,2.714c-1.9-1.481-3.823-2.821-5.747-4.151L542,237.613l14.714-8.727-6.98-12.675a126.582,126.582,0,0,1-15.069,4.914l.177.763c1.863.3,2.191,1.525,1.925,3.184l-.2,1.295-2.013,12.719c-.382,2.368-.807,5.1-3.406,6.084l-.106.718a31.655,31.655,0,0,1,10.332,6.351Zm-10.545-11.548,2.439-15.37,5.836,10.572Z" fill="#2e419a" fill-rule="evenodd"/><path d="M562.925,224.166l.559,1.286a3.536,3.536,0,0,1,1.942-.239c1.34.364,1.136,1.96.781,3.29-.16.568-.373,1.118-.47,1.464l-4.816,17.987-3.424,1.8,4.6,6.732,7.38-3.37-1.712-3.166,5.153-19.265,5.925-2.7,1.987,3.539-4.7,17.57c-1.322,4.914-1.348,7.246,1.428,11.521l8.976-3.991-.471-1.623c-.833.3-1.605.923-2.519.674a1.559,1.559,0,0,1-1.028-1.49,10.952,10.952,0,0,1,.55-3.45l.283-1.055,3.167-11.814c1.188-4.426,2.075-6.067,6.031-8.178l-.683-1.384-4.151,2.271-3.7-6.413L573.373,229c.958-3.583.027-5.41-2.084-8.24Z" fill="#2e419a" fill-rule="evenodd"/><path d="M599.964,233.893l-.444,1.074,2.909,1.179-6.9,17.065-.515,1.277c-.869,2.155-1.88,3.876-4.257,4.328l-.355.87a17.794,17.794,0,0,1,5.961,7.991l9.543-3.051-.479-1.535-2.767.843a40.977,40.977,0,0,0-2.315-3.61l8.683-21.5,5.677,2.279,1.471-3.645-5.667-2.28,4.062-10.057Z" fill="#2e419a" fill-rule="evenodd"/><path d="M616.488,242.641l.345,1.3,2.7-.718c.851,2.048.381,3.193-.612,5.215l-6.413,13.144c-1.046,2.164-2.3,3.894-4.763,4.151l-.354.719c2.837,2.119,4.514,5.348,5.649,8.665l11.034-2.554-.4-1.49-4.16.886-2.058-3.92,8.967-18.368,3.725-1.02,1.535,6.661,6.448-1.952-1.872-8.115-8.559,2.457a10.846,10.846,0,0,0-2.022-7.468Z" fill="#2e419a" fill-rule="evenodd"/><path d="M652.985,291.506l-.116-1.188a4.5,4.5,0,0,1-2.421-.39c-1.295-1.074-.292-2.936.541-4.3l.736-1.171,6.635-10.617c2.43-3.875,3.689-5.756,7.884-7.68l-.452-1.047a4.789,4.789,0,0,1-3.627-.381c-2.963-1.863-4.914-5.056-6.626-7.921A13.56,13.56,0,0,1,646.4,254.7c-.444-.266-1.269-.878-1.269-.878L644.8,260.4l-.257,6.182s-9.384,2.111-13.011,7.912c-2.085,3.326-1.34,7.228-.116,10.741l12.32-1.57c-1.525,3.255-1.41,5.552-.532,8.922Zm-6.1-20.293,2.43,3.512-4.648,7.46-5.96.736c-.851-3.025-1.357-6.342.372-9.118,1.437-2.279,5.34-6.182,5.562-5.872Zm7.8-5.073-4.586,7.344-2.3-3.326-1.986-2.865.345-6.058.258-5.073Z" fill="#2e419a" fill-rule="evenodd"/><path d="M667.611,303.671l-.125-1.544H665.58L664.213,298l19.353-25.668c2.546-3.37,4.08-4.94,8.408-4.878l.409-1.153a16.856,16.856,0,0,0-9.251-1.135,19.951,19.951,0,0,0-2.43-6.2l-.949.647c1.534,3.53.177,5.7-2,8.6L660.577,291c-1.49,1.969-2.563,3.167-5.127,2.688l-.665.878a17.6,17.6,0,0,1,3.885,9.472Z" fill="#2e419a" fill-rule="evenodd"/><path d="M680.409,335.838l7.805,9.313,9.695-8.142a40.261,40.261,0,0,1,4.825,11.619l13.916,2.013,17.109-14.359c7.14-5.987,6.492-13.908,5.153-22.28l-10.182-2.856,4.017-3.371-.984-1.161-4.79,4.017-4.151-1.091c4.205-3.7,4.825-8.967,1.171-13.312-2.43-2.9-6.093-4.107-9.8-4.213l-.231,1.534a9.43,9.43,0,0,1,4.515,2.652c3.414,4.08-.9,8.444-3.956,11.016l-14.386-3.885-.6.975a15.979,15.979,0,0,1,1.906,8.382c-.2,4.621-2.855,7.9-6.261,10.759-4.808-4.027-11.1-5.42-17.269-5.641l-.257,1.17a29.885,29.885,0,0,1,12.905,8.347Zm5.81,4.435,35.22-29.553,4.133,1.082-37.109,31.149Zm17.1-7.805,5.073-4.24a15.476,15.476,0,0,1,6.971,4.213,13.776,13.776,0,0,1,2.794,7.424l-8.354,7.016a44.262,44.262,0,0,0-6.484-14.413m6.413-5.357,7.627-6.422a14.273,14.273,0,0,0,2.74,7c1.926,2.289,4.56,3.5,7.212,4.506l-7.584,6.368a15.634,15.634,0,0,0-3.157-7.042,15.446,15.446,0,0,0-6.838-4.408m9.135-7.681,8.47-7.113,4.284,1.25c1.472,5.606,2.812,12.745-2.2,16.95-.177.15-.443.283-.612.416a13.311,13.311,0,0,1-7.37-4.257,12.42,12.42,0,0,1-2.572-7.246M705.3,306.312l7.716,2.182-7.246,6.066a23.249,23.249,0,0,0-.47-8.248" fill="#2e419a" fill-rule="evenodd"/><path d="M738.264,346.433l-.515,1.41,1.739.638-.2,1.907L724.2,359.462l-1.312.8c-1.375.807-2.484,1.224-4.036.036l-.816.487a27.4,27.4,0,0,1-.719,9.686l12.391,3.672c-3.61,2.173-4.807,4.159-5.2,8.3l8.55,3.353.5-1.57a2.732,2.732,0,0,1-1.482-1.055c-.976-1.623,1.455-3.087,2.519-3.725l16.524-9.925,3.042.966,1.41-7.982-7.592-2.306-.5,3.273-16.151,9.7-6.616-1.969.541-4.053L743.2,356.358l3.051.975,1.437-7.911Z" fill="#2e419a" fill-rule="evenodd"/><path d="M758.362,379.546l-.674,1.215a3.682,3.682,0,0,1,1.348,1.419c.523,1.268-.887,2.075-2.173,2.6-.532.212-1.1.372-1.437.5l-17.268,6.98-3.5-1.649-2.6,7.716L739.2,402.2l1.5-3.264,18.484-7.477,5.73,3.1-1.641,3.725-16.861,6.82c-4.718,1.907-6.6,3.291-8.355,8.08l8.594,4.763,1.02-1.357c-.745-.479-1.7-.718-2.048-1.6a1.545,1.545,0,0,1,.559-1.721,11.526,11.526,0,0,1,3.095-1.65l1.02-.408,11.335-4.576c4.239-1.721,6.093-1.987,10.155-.1l.692-1.383-4.31-1.943,2.891-6.82-10.262-5.579c3.442-1.4,4.346-3.246,5.331-6.635Z" fill="#2e419a" fill-rule="evenodd"/><path d="M770.93,412.563l-.8,1.082,2.368,1.783a31.847,31.847,0,0,0-1.739,3.272,31.077,31.077,0,0,0-10.368,1.189c-6.466,1.978-11.991,6.04-16.373,7.37-4.115,1.251-7.415.142-10.626-2.377l-.913.737c5,5.162,10,8.576,17.446,6.306,4.586-1.41,8.692-4.178,13.349-5.615a18.315,18.315,0,0,1,11.565.275,32.362,32.362,0,0,1,3.849-8.328ZM785,417.006l.328,1.8,9.7,3.122-1.81-5.907Z" fill="#2e419a" fill-rule="evenodd"/><path d="M758.034,465.168l.789-.887a4.353,4.353,0,0,1-1.348-2.049c-.115-1.676,1.925-2.226,3.5-2.527l1.356-.266,12.284-2.386c4.5-.878,6.723-1.233,11,.523l.462-1.047a4.732,4.732,0,0,1-2.2-2.909c-.665-3.432.337-7.024,1.268-10.244a13.714,13.714,0,0,1-4.691-8.133c-.089-.506-.222-1.517-.222-1.517l-5.029,4.231-4.7,4.027s-7.947-5.411-14.661-4.116c-3.849.754-6.2,3.956-7.921,7.255l9.535,7.921c-3.415,1.108-5.02,2.758-6.883,5.72Zm10.679-18.306-.9,4.177-8.63,1.677-4.6-3.841c1.624-2.7,3.708-5.322,6.919-5.951,2.652-.515,8.169-.32,8.1.071Zm9.029,2.244-8.5,1.658.86-3.955.754-3.406,4.656-3.867,3.885-3.273Z" fill="#2e419a" fill-rule="evenodd"/><path d="M758.549,469.2a26.813,26.813,0,0,1-5.065,13.943,30.361,30.361,0,0,1,7.175,10.253l19.859-1.73c5.588-.5,6.989-1.206,10.226-5.792l-9.516-9.534,12.381-1.091c3.992-.346,6.785-.222,9.34,3.131l.7-.275a13.193,13.193,0,0,0-4.984-7.823,16.186,16.186,0,0,0,2.643-5.641l-.914-.355c-2,2.874-3.414,3.512-6.882,3.823l-27.265,2.377-1.8.168c-1.96.169-3.937.116-5.179-1.525Zm21.011,7.282,5.428,5.357c-1.561,2.19-3.583,2.519-6.1,2.731l-19.291,1.7,2.714-8.275Z" fill="#2e419a" fill-rule="evenodd"/><path d="M240.922,636.126l.754-1.641-3.992-1.907a19.271,19.271,0,0,0-.275-12.914,32.1,32.1,0,0,0-5.17-8.506c7.636,4.125,14.013,7.282,22.652,3.788,3.974-1.6,7.539-4.063,11.451-5.641,4.514-1.827,7.237.443,9.428,4.5l1.25-1.374c-2.918-7.2-8.5-11.149-16.328-7.983-3.778,1.526-7.078,3.867-10.847,5.393-7.158,2.891-13.828,1.9-20.4-2.5,6.2,1.57,11.53,1.934,17.668-.558,4.39-1.765,8.328-4.462,12.71-6.227,4.452-1.8,7.822-.647,11.965,1.836l.771-1.011a14.159,14.159,0,0,1-4.284-5.348c-1.3-3.228-.4-6.812-1.7-10.049a8.115,8.115,0,0,0-9.987-4.133,10.487,10.487,0,0,0-2.545,1.658L255,584.55a7.544,7.544,0,0,1,1.135-.709,3.347,3.347,0,0,1,4.5,1.64c.9,2.227.275,4.754,1.2,7.043a25.479,25.479,0,0,0,3.273,5.357c-4.914-2.244-8.763-2.661-13.9-.594-.807.328-1.553.8-2.369,1.117a9.613,9.613,0,0,0-.656-2.785,8.219,8.219,0,0,0-5.33-4.044l-.275,1.055a5.349,5.349,0,0,1,2.12,2.51c1.471,3.646-.914,6.093-4.054,7.442a6.393,6.393,0,0,0-.195-3.761,5.268,5.268,0,0,0-3.592-2.874l-.47.976a4.817,4.817,0,0,1,1.144,1.667c1.065,2.626-.834,5.118-3.193,6.067-4.834,1.641-10.821-1.907-14.67-4.656l-1.029,1.348a37.384,37.384,0,0,1,11.876,15.211c1.907,4.718,1.641,10.093.275,14.883Z" fill="#2e419a" fill-rule="evenodd"/><path d="M260.089,669.089l.408-1.118a4.451,4.451,0,0,1-2-1.41c-.692-1.543,1.02-2.776,2.377-3.628l1.162-.727,10.626-6.625c3.884-2.439,5.827-3.566,10.457-3.451l.053-1.144a4.757,4.757,0,0,1-3.1-1.933c-1.853-2.963-2.208-6.688-2.483-10.023a13.571,13.571,0,0,1-7.3-5.915c-.275-.426-.753-1.331-.753-1.331l-3.176,5.756L263.424,643s-9.367-2.226-15.167,1.4c-3.326,2.085-4.373,5.9-4.807,9.606l11.752,3.982c-2.785,2.262-3.7,4.382-4.382,7.8Zm3.4-20.914.666,4.222-7.459,4.665-5.686-1.943c.559-3.1,1.57-6.3,4.346-8.026,2.28-1.419,7.495-3.238,7.566-2.847Zm9.243-1.136-7.344,4.586-.6-4-.532-3.441,2.972-5.278,2.448-4.452Z" fill="#2e419a" fill-rule="evenodd"/><path d="M263.548,683.9l7.813,1.916.577-3.468,15.14-12.266,6.936,1.5c-.009,2.643-.914,3.734-2.945,5.384l-13.57,11c-7.858,6.359-12.24,5.233-20.719.656l-.736,1.162c4.186,2.51,8.6,4.949,13.366,6.217,6.235,1.7,10.555-.488,15.3-4.337l11.255-9.109c4.355-3.53,5.464-5.277,5.224-10.776l-12.807-2.75,10.12-8.2c3.113-2.519,5.073-2.98,8.914-1.6l.407-.9c-2.519-2.173-5.295-3.761-8.709-3.805a17.338,17.338,0,0,0-.515-6.413l-1.1.133c-.1,3.362-1.144,4.958-3.68,7.016L267.352,676.7l-3.7-.746Z" fill="#2e419a" fill-rule="evenodd"/><path d="M322.156,700.842a32.791,32.791,0,0,1-4.621-11.752,28.728,28.728,0,0,1-11.53-2.829l-11.467,11.876a45.184,45.184,0,0,1-3.9,3.619,4.04,4.04,0,0,1-3.123.727l-.611.621a24.715,24.715,0,0,1,5.685,13.171,40.952,40.952,0,0,1,11.584,3.211l1.267-1.322Zm-10.873-9.889,3.166,7.61-15.308,15.849-3.167-7.61Z" fill="#2e419a" fill-rule="evenodd"/><path d="M325.2,704.95l.035,1.34,2.786-.089c.39,2.191-.338,3.193-1.756,4.949l-9.2,11.362c-1.517,1.871-3.122,3.281-5.588,2.971l-.5.621c2.305,2.7,3.193,6.226,3.556,9.712l11.326-.009-.062-1.534-4.239-.071-1.127-4.284,12.87-15.894,3.858-.142-.009,6.829,6.732-.434.009-8.338-8.9.471a10.877,10.877,0,0,0-.3-7.726Z" fill="#2e419a" fill-rule="evenodd"/><path d="M354.947,754.917l-.08-1.251-6.271.293c-1.179-2.111-2.421-4.089-3.672-6.075l3.548-5.677,16.949-2.27-1.472-14.395a127.146,127.146,0,0,1-15.787-1.375l-.134.78c1.606,1,1.419,2.253.524,3.672l-.7,1.118-6.821,10.927c-1.259,2.031-2.731,4.372-5.5,4.266l-.381.621a31.467,31.467,0,0,1,7.025,9.889Zm-5.2-14.741,8.249-13.2,1.241,12.01Z" fill="#2e419a" fill-rule="evenodd"/><path d="M370.2,764.645l-2.226-6.945-7,2.3c.6,1.961,1.525,4.1.47,6.094-.958,1.791-3.184,2.261-5.109,2.643l-.2,1.623a16.014,16.014,0,0,0,14.067-5.712" fill="#2e419a" fill-rule="evenodd"/><path d="M408.491,795.81l11.734,3.131,3.273-12.213a40.953,40.953,0,0,1,10.626,6.75l12.541-6.351,5.783-21.57c2.413-8.994-2.661-15.1-8.559-21.2l-9.978,3.5,1.357-5.064-1.481-.4-1.615,6.049-4.008,1.481c1.312-5.446-1.207-10.111-6.688-11.584-3.654-.966-7.344.151-10.448,2.173l.674,1.393a9.353,9.353,0,0,1,5.233-.4c5.135,1.366,4.115,7.423,3.078,11.291l-14,5.055L406.07,759a16.1,16.1,0,0,1,6.368,5.765c2.492,3.912,2.191,8.134,1.047,12.418-6.262-.542-12.2,1.924-17.384,5.286l.452,1.1a29.891,29.891,0,0,1,15.362-.549Zm7.3.293,11.894-44.409,4.017-1.49-12.541,46.8Zm9.534-16.2,1.721-6.394a15.419,15.419,0,0,1,8.116-.533,13.754,13.754,0,0,1,6.563,4.471L438.9,788a44.274,44.274,0,0,0-13.579-8.089m2.173-8.08,2.572-9.632a14.126,14.126,0,0,0,6.271,4.169c2.883.763,5.721.257,8.471-.435l-2.555,9.553a13.974,13.974,0,0,0-14.759-3.655m3.087-11.521,2.856-10.7,4.222-1.42c4.416,3.752,9.614,8.826,7.92,15.149-.053.213-.2.47-.257.683a13.2,13.2,0,0,1-8.479.745,12.338,12.338,0,0,1-6.262-4.461m-18.643-2.971,7.565-2.643-2.457,9.135a23.128,23.128,0,0,0-5.108-6.492" fill="#2e419a" fill-rule="evenodd"/><path d="M523.058,794.513l-.755-1.074-1.933,1.553c-3.636-4.009.275-8.888-7.778-16.16a4.814,4.814,0,0,0-.586-.5l7.645-7.193-6.953-7.167-9.082,9.118-.24-13.384c-.07-4.142.124-5.676,3.788-8.142l-.24-1.011c-3.468.851-6.209,2-8.639,4.656a11.4,11.4,0,0,0-5.588-3.255l-.425.887c3.087,2.058,3.645,4.444,3.716,8.089l.488,28.728c.035,2.111.079,4.213-2.235,5.144l.018,1a18.374,18.374,0,0,1,8.754,5.233l9.1-7.8a14.837,14.837,0,0,0,3.334,7.584Zm-19.1-1.7-.124-6.839,3.006-2.82c3.317,2.27,4.31,4.656,5.02,8.426l-4.293,3.716Zm-.151-8.737-.169-9.082,5.3-5.268,4.887,5.082Z" fill="#2e419a" fill-rule="evenodd"/><path d="M544.494,791.948l-1.02-1.118-1.951,2.067-2.235-1.561-2.741-22.316,2.182-2.528-6.6-4.177-5.411,5.419,2.785,1.863,2.173,17.685.089.728c.248,2.1.337,3.92-1.721,5.055l.08.639a36.371,36.371,0,0,1,7.592,5.082Zm-12.487-35.921,1.756-.071,4.993-8.9-6.022.523Z" fill="#2e419a" fill-rule="evenodd"/><path d="M550.712,796.521l1.082.576a10.516,10.516,0,0,1,6.528-4.284c2.554-.541,5.162-.2,8.479,1.1a24.513,24.513,0,0,1,8.648-7.636L572.505,772.4l-8.151-2.661,4.2-9.6c1.6-3.68,2.048-5.419,1.667-7.184-.39-1.853-1.632-2.794-3.193-2.457a2.028,2.028,0,0,0-1.623,2.51c.479,2.271,1.925,1.375,2.332,3.291.267,1.277-1.01,2.6-3.006,3.024a20.11,20.11,0,0,1-9.792-.6c-1.73,3.788-3.743,5.854-7.992,8.249l2.67,12.594,7.4,2.227Zm15.4-18.83,2.048,9.614c-3.1-.913-5.153-1.135-7.219-.7a12.828,12.828,0,0,0-4.719,1.96l5.286-12.275ZM555.8,774.312l-2.023-9.544a14.33,14.33,0,0,0,7.876.71,16.626,16.626,0,0,0,2.8-.816l-4.754,10.9Z" fill="#2e419a" fill-rule="evenodd"/><path d="M576.992,757.5l.364,1.108,2.971-.957,5.685,17.5.435,1.313c.71,2.226,1.046,4.177-.488,6.048l.292.905a17.6,17.6,0,0,1,9.7,2.288l5.357-8.479-1.348-.869-1.588,2.43a40.223,40.223,0,0,0-4.088-1.268l-7.167-22.076,5.809-1.88-1.214-3.743-5.81,1.889-3.353-10.315Z" fill="#2e419a" fill-rule="evenodd"/><path d="M633.206,763.789l-1.046-.568a4.6,4.6,0,0,1-1.677,1.792c-1.614.461-2.6-1.41-3.264-2.865l-.559-1.25-5.082-11.442c-1.871-4.186-2.722-6.271-1.969-10.829l-1.126-.213a4.761,4.761,0,0,1-2.333,2.794c-3.2,1.419-6.927,1.25-10.28,1.064a13.568,13.568,0,0,1-6.864,6.4c-.47.2-1.429.55-1.429.55l5.269,3.955,4.976,3.672s-3.5,8.958-.71,15.211c1.6,3.583,5.233,5.144,8.843,6.093l5.579-11.077c1.844,3.086,3.814,4.266,7.113,5.428Zm-20.24-6.288,4.275-.071,3.583,8.044-2.723,5.357c-2.98-.984-6.013-2.412-7.343-5.41-1.1-2.457-2.156-7.876-1.757-7.885Zm.16-9.3,3.53,7.92-4.045.036-3.494.035-4.807-3.663-4.071-3.033Z" fill="#2e419a" fill-rule="evenodd"/><path d="M626.111,738.972l1.3.479a3.652,3.652,0,0,1,1.188-1.561c1.189-.7,2.2.55,2.918,1.73.293.506.533,1.038.719,1.357l9.6,15.956-1.091,3.707,8.036,1.366,2.705-7.645-3.468-.976L637.747,736.3l2.173-6.138,3.93,1.029,9.366,15.592c2.625,4.364,4.283,6,9.286,6.981l3.362-9.242-1.491-.79c-.372.807-.452,1.8-1.268,2.28a1.534,1.534,0,0,1-1.774-.284,11.206,11.206,0,0,1-2.119-2.8l-.559-.94-6.3-10.475c-2.351-3.929-2.927-5.712-1.686-10.022l-1.472-.461-1.251,4.559-7.184-1.792L636.852,734.8c-1.907-3.184-3.876-3.778-7.38-4.222Z" fill="#2e419a" fill-rule="evenodd"/><path d="M669.358,703.8l6.838.187,2.342-16.906a9.753,9.753,0,0,1,7.352,3.291c9.828,10.537-.053,28,7.176,40.56l1.038-.178a30.5,30.5,0,0,1,7.273-10.758,25.818,25.818,0,0,1,10.492-5.81l-.284-9.375a41.8,41.8,0,0,0-11.53,7.273,35.684,35.684,0,0,0-7.645,11.105c-.746-12.435,9.587-27.052-.586-37.97-.692-.736-1.33-1.428-2.076-2.129L671.7,686.68Z" fill="#2e419a" fill-rule="evenodd"/><path d="M734.7,688.571c1.73-10.12-1.33-21.481-9.472-28.071-8.258-6.7-18.368-6.918-27.451-1.827-.887,10.226,1.047,21.251,9.473,28.071,8.186,6.643,18.342,6.723,27.45,1.827m-1.72-8.514c-8.32,4.967-18.094,6.04-26-.373a23.571,23.571,0,0,1-7.6-12.231c8.337-6.262,18.794-5.747,26.821.745a18.452,18.452,0,0,1,6.785,11.859" fill="#2e419a" fill-rule="evenodd"/><path d="M759.213,652.965c.311-10.253-4.31-21.091-13.286-26.493-9.1-5.463-19.14-4.293-27.433,2.022.532,10.253,3.991,20.9,13.287,26.476,9.029,5.437,19.1,4.1,27.432-2m-2.882-8.2c-7.566,6.075-17.091,8.506-25.81,3.255a23.627,23.627,0,0,1-9.233-11.06c7.4-7.353,17.809-8.3,26.679-2.989a18.492,18.492,0,0,1,8.364,10.794" fill="#2e419a" fill-rule="evenodd"/><path d="M738.9,613.363l6.279-2.723-5.02-16.31a9.807,9.807,0,0,1,8.054-.116c13.348,5.393,11.787,25.4,23.645,33.722l.87-.6a30.223,30.223,0,0,1,2.039-12.825,25.746,25.746,0,0,1,7.061-9.7l-4.231-8.381a41.925,41.925,0,0,0-7.37,11.468,35.534,35.534,0,0,0-2.236,13.3c-5.933-10.963-2.74-28.568-16.577-34.165-.939-.372-1.809-.736-2.784-1.047L733.8,596.866Z" fill="#2e419a" fill-rule="evenodd"/><path d="M597,612.675l-82.68,34.493H490.8l-85.7-36.524H369.8v58.272h36.63l76.632,34.83h38.981l74.618-34.156h35.957V612.675ZM457.087,658.423a49.9,49.9,0,0,1-.612,9.455,10.389,10.389,0,0,1-2.262,4.674,11.277,11.277,0,0,1-4.355,3.042,19.26,19.26,0,0,1-7.158,1.118,21.038,21.038,0,0,1-8.1-1.215,11.686,11.686,0,0,1-4.337-3.2,10.328,10.328,0,0,1-2.1-4.133,44.652,44.652,0,0,1-.737-9.428v-19.85h7.5v20.142a41.4,41.4,0,0,0,.284,6.218,6.141,6.141,0,0,0,2.279,3.681,8.116,8.116,0,0,0,4.967,1.374,7.64,7.64,0,0,0,4.825-1.294,5.141,5.141,0,0,0,1.951-3.22,40.026,40.026,0,0,0,.346-6.324V638.884h7.5Zm53.323,35.629A15.8,15.8,0,0,1,500.555,697a16.021,16.021,0,0,1-12.186-5.037q-4.763-5.083-4.772-13.863,0-9.273,4.79-14.413A16.469,16.469,0,0,1,501,658.539a15.456,15.456,0,0,1,11.087,4.026,14.589,14.589,0,0,1,3.8,6.856l-7.433,1.783a7.714,7.714,0,0,0-7.832-6.244,8.485,8.485,0,0,0-6.731,2.971q-2.554,2.967-2.555,9.615,0,7.051,2.528,10.04a8.252,8.252,0,0,0,6.6,3,7.534,7.534,0,0,0,5.153-1.907,11.022,11.022,0,0,0,3.095-5.987l7.273,2.315q-1.664,6.093-5.578,9.047M569.6,656.091a10.316,10.316,0,0,1-3.176,3.672,10.807,10.807,0,0,1-3.876,1.756,43.56,43.56,0,0,1-7.787.541h-4.887v14.022h-7.521v-37.2h12.054q6.851,0,8.922.559a9.793,9.793,0,0,1,5.357,3.645,11.572,11.572,0,0,1,2.165,7.238,12.122,12.122,0,0,1-1.251,5.765" fill="#ed1c24" fill-rule="evenodd"/><path d="M558.9,645.428a36.422,36.422,0,0,0-5.411-.248H549.87v10.554h4.106a19.431,19.431,0,0,0,5.943-.585,4.933,4.933,0,0,0,3.184-4.719,4.749,4.749,0,0,0-1.189-3.344,5.161,5.161,0,0,0-3.015-1.658" fill="#ed1c24" fill-rule="evenodd"/><polygon points="500.999 631.128 502.161 631.128 502.25 631.101 502.312 631.039 502.338 630.95 501.975 460.383 502.356 460.303 502.631 461.137 501.496 461.19 501.434 467.86 501.345 485.599 501.239 510.93 501.114 540.42 501.008 570.63 500.911 598.08 500.84 619.349 500.813 630.95 500.84 631.039 500.911 631.101 500.999 631.128" fill="#2e419a" fill-rule="evenodd"/><rect x="497.354" y="285.853" width="7.654" height="214.16" fill="#ed1c24"/><rect x="497.354" y="285.853" width="7.654" height="214.16" fill="#ed1c24"/><polygon points="475.579 339.356 475.739 480.557 500.866 499.989 524.724 480.574 524.378 338.806 548.397 363.028 547.812 375.809 541.585 375.915 541.585 364.891 531.101 354.966 531.101 484.778 500.946 508.894 469.61 484.565 470.036 354.363 460.155 364.554 460.155 440.919 453.955 436.059 453.955 363.498 475.579 339.356" fill="#ed1c24" fill-rule="evenodd"/><polygon points="542.1 440.627 542.1 386.86 548.725 386.86 548.725 433.957 542.1 440.627" fill="#ed1c24" fill-rule="evenodd"/><polygon points="542.1 440.627 542.1 386.86 548.725 386.86 548.725 433.957 542.1 440.627" fill="#ed1c24" fill-rule="evenodd"/><polygon points="483.775 324.458 489.974 324.458 489.974 442.536 502.081 449.117 511.261 442.625 511.234 324.227 518.197 324.227 518.259 445.596 501.691 457.357 483.775 446.651 483.775 324.458" fill="#ed1c24" fill-rule="evenodd"/><polygon points="587.919 501.361 587.831 501.618 598.651 488.092 612.78 496.207 612.319 598.977 512.299 639.413 491.704 639.377 393.617 599.616 393.662 496.207 405.467 488.97 418.301 500.837 405.467 494.141 405.422 593.434 501.522 632.743 598.979 592.777 598.819 542.444 599.112 495.241 598.722 494.779 587.919 501.361" fill="#2e419a" fill-rule="evenodd"/><polygon points="573.365 483.016 573.285 483.238 582.358 470.865 594.172 478.289 593.799 572.411 510.028 609.449 492.777 609.414 410.638 572.996 410.682 478.289 420.563 471.663 431.312 482.537 420.563 476.391 420.527 567.328 501.017 603.338 582.615 566.734 582.491 520.64 582.731 477.402 582.402 476.976 573.365 483.016" fill="#2e419a" fill-rule="evenodd"/><polygon points="560.256 465.728 560.184 465.941 567.572 454.269 577.187 461.266 576.868 549.943 508.751 584.835 494.719 584.799 427.924 550.493 427.95 461.266 435.995 455.031 444.74 465.275 435.995 459.484 435.96 545.153 501.424 579.07 567.776 544.594 567.679 501.161 567.874 460.433 567.599 460.043 560.256 465.728" fill="#2e419a" fill-rule="evenodd"/><polygon points="548.584 448.171 541.887 452.694 554.907 437.652 562.703 444.082 562.455 525.485 507.181 557.522 495.793 557.486 441.592 525.991 441.61 444.082 448.138 438.352 461.016 452.881 454.452 447.763 448.138 442.441 448.111 521.104 501.229 552.235 555.076 520.581 554.996 480.713 555.156 443.319 554.934 442.956 548.584 448.171" fill="#2e419a" fill-rule="evenodd"/><polygon points="454.284 447.477 460.661 452.444 460.661 497.98 501.096 528.517 541.993 498.059 541.089 452.08 547.749 447.912 547.767 501.997 507.261 532.819 496.192 532.819 454.284 502.263 454.284 447.477" fill="#2e419a" fill-rule="evenodd"/><path d="M504.387,269.315c-127.453,0-230.782,103.843-230.782,231.855S376.934,733.025,504.387,733.025,735.168,629.191,735.168,501.17,631.84,269.315,504.387,269.315M662.945,660.491a226.035,226.035,0,1,1,65.7-159.321,222.969,222.969,0,0,1-65.7,159.321" fill="#2e419a"/></svg>