<?xml version="1.0" encoding="utf-8"?>
<!-- Generator: Adobe Illustrator 25.1.0, SVG Export Plug-In . SVG Version: 6.00 Build 0)  -->
<svg version="1.0" id="Layer_1" xmlns="http://www.w3.org/2000/svg" xmlns:xlink="http://www.w3.org/1999/xlink" x="0px" y="0px"
	 viewBox="0 0 280 300" enable-background="new 0 0 280 300" xml:space="preserve">
<g>
</g>
<g>
	<path fill-rule="evenodd" clip-rule="evenodd" fill="#E30079" d="M132.82,150l-10.49-2.76l-1.38,2l-3.65-0.85l-10.55-2.14
		l3.12-2.89l-0.98-24.83l-4.05-1.63v23.32l-4.53,3.68l-0.9-0.53l3.43-3.51v-17.22l-6.58-0.22v-18.2l-4.9-1.52l-0.14,36.17
		l-3.37,3.12l-1.52-0.4l3.29-2.98V125.3l-4.67-2.89l-2.28,0.99v-2.9l-4.13-2.59v-9.96l-4.44-2.73v25.45h-1.75l-0.62-13.3l-8.49,5.43
		c1.46-8.36,4.22-15.61,7.73-22.47l3.35,3.96l5.43,2.22l0.08,4.5l11.7-10.86l6.33,3.2l-0.05,17.05l6.72-4.81l5.52,2.36v12.85
		l10.24,5.52l3.34-2.37l3.29,4.05l2.99-2.08l3.06,3.91c0.99-0.22,2.76-0.93,3.83-1.07c2.75,5.21,11.16,8.19,20.64,10.16
		c-1.15,0.7-2.31,1.46-3.38,2.22L132.82,150z M111.39,132.81c3.29,1.69,6.67,3.35,10.04,5.12c0.81-0.39,1.74-0.76,2.67-1.15
		c1.12,1.38,2.28,2.84,3.43,4.28c1.16-0.59,2.37-1.43,3.6-2.05c1.07,1.21,2.06,2.14,3.12,3.43c0.99-0.14,1.55-0.68,2.53-0.76
		c4.41,3.68,10.94,6.49,17.66,7.73c-14.24-0.09-28.38-2.08-42.67-6.44C111.64,139.54,111.47,136.16,111.39,132.81L111.39,132.81z
		 M62.62,126.09l6.8-3.69l0.17,9.65l-8.05,5.03L62.62,126.09z M75.61,108.12h1.77v7.11h-1.77V108.12z M75.61,121.42h1.77v14.46
		h-1.77V121.42z M82.73,126.09h1.77v14.43h-1.77V126.09z M99.94,126.09h1.75v14.43h-1.75V126.09z M92.82,104.75h1.77v18.73h-1.77
		V104.75z M106.27,118.97h1.77v13.98h-1.77V118.97z M93.81,125.61h3.2v13.53l-3.66,3.46h-3.2l3.66-3.83V125.61z M106.89,135.09h1.61
		v6.72l-4.36,3.29l-1.07-0.31l3.82-3.12V135.09z M113.55,135.26c0.37,0,0.68,0.22,0.68,0.53c0,0.31-0.31,0.54-0.68,0.54
		c-0.4,0-0.71-0.23-0.71-0.54C112.85,135.48,113.16,135.26,113.55,135.26L113.55,135.26z M117.3,137.09c0.36,0,0.67,0.22,0.67,0.53
		s-0.31,0.53-0.67,0.53c-0.4,0-0.71-0.22-0.71-0.53S116.9,137.09,117.3,137.09L117.3,137.09z M113.16,139.62
		c0.4,0,0.68,0.22,0.68,0.53c0,0.31-0.28,0.53-0.68,0.53c-0.39,0-0.67-0.22-0.67-0.53C112.49,139.85,112.77,139.62,113.16,139.62
		L113.16,139.62z M117.12,141.22c0.4,0,0.71,0.22,0.71,0.53c0,0.31-0.31,0.54-0.71,0.54c-0.37,0-0.68-0.23-0.68-0.54
		C116.45,141.45,116.76,141.22,117.12,141.22L117.12,141.22z M121.8,139.08c0.39,0,0.7,0.23,0.7,0.54c0,0.31-0.31,0.53-0.7,0.53
		c-0.37,0-0.68-0.22-0.68-0.53C121.12,139.31,121.43,139.08,121.8,139.08L121.8,139.08z M121.26,142.06c0.4,0,0.71,0.23,0.71,0.54
		c0,0.31-0.31,0.53-0.71,0.53c-0.36,0-0.67-0.22-0.67-0.53C120.59,142.3,120.9,142.06,121.26,142.06L121.26,142.06z M125.62,143.36
		c0.4,0,0.68,0.22,0.68,0.53c0,0.31-0.28,0.54-0.68,0.54c-0.4,0-0.68-0.23-0.68-0.54C124.94,143.58,125.22,143.36,125.62,143.36
		L125.62,143.36z M71.73,133.8l1.07,0.53l-2.67,2.08l-1.02-0.93L71.73,133.8z M75.47,135.57l-2.05,1.12l1.52,1.55l2.36-2.3
		L75.47,135.57z M79.29,123.16h1.3v9.43h-1.3V123.16z M87,126.09h1.07v11.75H87V126.09z M98.25,141.37l-2.67,1.38l0.62,1.24
		l2.67-1.38L98.25,141.37z M89.09,107.14c-0.54,0-1.02,0.45-1.02,1.07c0,0.54,0.48,0.99,1.02,0.99c0.62,0,1.07-0.45,1.07-0.99
		C90.15,107.58,89.7,107.14,89.09,107.14L89.09,107.14z M89.22,111.18c-0.45,0-0.84,0.37-0.84,0.9c0,0.48,0.4,0.85,0.84,0.85
		c0.53,0,0.93-0.37,0.93-0.85C90.15,111.55,89.76,111.18,89.22,111.18L89.22,111.18z M89.4,115.46c-0.4,0-0.76,0.31-0.76,0.84
		c0,0.37,0.37,0.76,0.76,0.76c0.53,0,0.84-0.4,0.84-0.76C90.24,115.77,89.93,115.46,89.4,115.46L89.4,115.46z M85.87,109.02
		c-0.53,0-1.01,0.48-1.01,1.09c0,0.45,0.48,0.99,1.01,0.99c0.54,0,1.13-0.54,1.13-0.99C87,109.5,86.41,109.02,85.87,109.02
		L85.87,109.02z M86.46,112.85c-0.45,0-0.9,0.4-0.9,0.93c0,0.39,0.45,0.84,0.9,0.84c0.48,0,1.01-0.45,1.01-0.84
		C87.48,113.24,86.95,112.85,86.46,112.85L86.46,112.85z M86.95,116.98c-0.4,0-0.84,0.31-0.84,0.76c0,0.39,0.45,0.78,0.84,0.78
		c0.36,0,0.9-0.4,0.9-0.78C87.85,117.29,87.31,116.98,86.95,116.98L86.95,116.98z M82.81,110.93c-0.54,0-0.99,0.48-0.99,1.07
		c0,0.48,0.45,1.01,0.99,1.01c0.61,0,1.07-0.53,1.07-1.01C83.88,111.41,83.43,110.93,82.81,110.93L82.81,110.93z M83.79,114.44
		c-0.45,0-0.84,0.4-0.84,0.93c0,0.4,0.4,0.85,0.84,0.85c0.53,0,0.93-0.45,0.93-0.85C84.72,114.84,84.33,114.44,83.79,114.44
		L83.79,114.44z M84.56,118.35c-0.45,0-0.76,0.4-0.76,0.85c0,0.39,0.31,0.76,0.76,0.76c0.48,0,0.84-0.37,0.84-0.76
		C85.4,118.75,85.03,118.35,84.56,118.35L84.56,118.35z M84.56,118.35"/>
	<path fill="#E30079" d="M154.23,151.75l-0.2-0.01l-21.35-1.17l-10.1-2.65l-1.37,1.99l-4.03-0.94l-11.64-2.36l3.75-3.49l-0.2-5.03
		v4.02l-4.83,3.64l-2.41-0.7l4.47-3.66v-6.89h2.63l-0.31-7.95v6.98h-2.94v-15.14H107l-1.58-0.64v22.73l-5.06,4.12l-1.89-1.12
		l0.04-0.04l-2.57,1.32l-1.14-2.28l3.71-1.92l0.95,1.91l1.33-1.37h-1.44v-15.6h2.9v-2.31l-6.58-0.22v-18.34l-0.5-0.15v19.58h-2.94
		v-19.9h1.89l-2.19-0.68l-0.14,35.64l-3.79,3.52l-2.88-0.75l3.9-3.54v-12.72l-4.14-2.56l-2.81,1.21v-3.46l-4.13-2.59v-2.41h-2.93
		v-8.28h1.71l-2.06-1.27v25h-2.89l-0.6-12.86l-8.75,5.6l0.23-1.31c1.34-7.69,3.81-14.88,7.78-22.64l0.4-0.78l3.82,4.53l5.65,2.31
		l0.06,3.58l11.04-10.24l7.01,3.55l-0.05,16.26l6.06-4.34l6.17,2.64v12.89l9.61,5.18l3.49-2.47l3.29,4.05l3-2.09l3.16,4.04
		c0.32-0.08,0.7-0.21,1.09-0.33c0.86-0.27,1.75-0.56,2.44-0.65l0.4-0.05l0.19,0.35c2.26,4.28,8.88,7.5,20.24,9.86l1.44,0.3
		l-1.26,0.77c-1.18,0.72-2.33,1.48-3.34,2.2L154.23,151.75z M132.91,149.42l20.97,1.14c0.63-0.45,1.31-0.91,2.02-1.36
		c-0.46-0.1-0.91-0.2-1.35-0.31l-0.11,1.1c-14.83-0.09-28.85-2.2-42.84-6.47l-0.4-0.12l-0.12-2.88c-0.11-2.59-0.23-5.15-0.29-7.7
		l-0.02-0.96l-0.79-0.43l0.48,12.16l-2.48,2.31l9.44,1.91l3.28,0.76l1.39-2.01L132.91,149.42z M112.35,142.53
		c12.07,3.64,24.15,5.67,36.79,6.17c-4.84-1.49-9.23-3.73-12.52-6.43c-0.32,0.06-0.6,0.18-0.91,0.31c-0.38,0.16-0.82,0.34-1.36,0.42
		l-0.32,0.05l-0.21-0.25c-0.63-0.76-1.23-1.39-1.83-2.03c-0.32-0.34-0.64-0.68-0.97-1.05c-0.49,0.27-0.97,0.56-1.45,0.84
		c-0.59,0.36-1.18,0.7-1.75,1l-0.42,0.21l-1.76-2.19c-0.56-0.71-1.13-1.41-1.68-2.1l-0.08,0.04c-0.75,0.31-1.49,0.62-2.16,0.94
		l-0.14,0.06c0.08-0.01,0.17-0.02,0.25-0.02c0.72,0,1.28,0.49,1.28,1.12c0,0.63-0.55,1.11-1.28,1.11c-0.71,0-1.26-0.49-1.26-1.11
		c0-0.49,0.35-0.91,0.84-1.05l-0.22-0.12c-0.94-0.49-1.88-0.98-2.82-1.46c0.13,0.18,0.21,0.39,0.21,0.63c0,0.63-0.55,1.12-1.25,1.12
		c-0.73,0-1.29-0.48-1.29-1.12c0-0.67,0.62-1.09,1.39-1.12c-0.86-0.44-1.72-0.86-2.57-1.3c-0.11-0.06-0.22-0.11-0.33-0.17
		c0.2,0.2,0.32,0.46,0.32,0.75c0,0.63-0.55,1.12-1.26,1.12c-0.73,0-1.29-0.48-1.29-1.12c0-0.71,0.78-1.26,1.55-1.09
		c-0.6-0.31-1.21-0.62-1.81-0.92c0.06,1.86,0.13,3.74,0.21,5.62c0.23-0.23,0.56-0.37,0.95-0.37c0.72,0,1.26,0.48,1.26,1.11
		c0,0.64-0.54,1.13-1.26,1.13c-0.35,0-0.65-0.11-0.88-0.31L112.35,142.53z M136.98,141.06l0.19,0.15c4.02,3.37,9.83,6.01,16.1,7.36
		c-9.09-2.29-14.48-5.24-16.78-9.16c-0.55,0.11-1.23,0.34-1.85,0.53c-0.52,0.17-1.02,0.32-1.42,0.42c0.41,0.44,0.84,0.9,1.27,1.41
		c0.27-0.07,0.51-0.17,0.77-0.28c0.41-0.18,0.88-0.37,1.49-0.43L136.98,141.06z M96.36,143l0.1,0.2l1.64-0.84l-0.1-0.2L96.36,143z
		 M96.84,121.85l6.58,0.22v18.01l-2.51,2.57l3.33-2.71v-23.43l-7.03,5.03l0.05-17.82l-5.65-2.86l-12.36,11.47l-0.09-5.42l-3.64-1.48
		l3.59,2.2v9.96l4.13,2.59v2.33l1.74-0.75l5.21,3.23v13.89l-2.68,2.43l0.17,0.04l2.95-2.73l0.09-21.81
		c-0.19,0.46-0.66,0.84-1.33,0.84c-0.7,0-1.35-0.64-1.35-1.34c0-0.81,0.58-1.43,1.35-1.43c0.65,0,1.13,0.33,1.33,0.86l0.06-13.84
		l6.06,1.88V121.85z M107.47,135.67v6.19l0.44-0.33v-5.86H107.47z M124.28,136.08l0.28,0.34c0.65,0.79,1.3,1.61,1.97,2.44l1.16,1.46
		c0.41-0.23,0.84-0.49,1.26-0.74c0.63-0.38,1.27-0.77,1.92-1.09l0.21-0.11l-1.29-1.65l-2.98,2.07l-3.29-4.04l-2.93,2.07
		c0.29,0.15,0.58,0.3,0.86,0.45c0.61-0.28,1.28-0.56,1.95-0.84L124.28,136.08z M100.52,139.94h0.58v-13.27h-0.58V139.94z
		 M106.85,132.37h0.6v-12.81h-0.6V132.37z M72.9,130.09h0.61v-25.85l-2.42-2.87c-3.46,6.91-5.72,13.38-7.04,20.21l8.21-5.25
		L72.9,130.09z M93.41,122.89h0.6v-17.57h-0.6V122.89z M89.4,116.05c-0.11,0-0.18,0.1-0.18,0.26c0,0.06,0.11,0.17,0.18,0.17
		c0.22,0,0.26-0.14,0.26-0.17C89.66,116.09,89.61,116.05,89.4,116.05z M76.2,114.65h0.6v-5.95h-0.6V114.65z M125.62,145.02
		c-0.72,0-1.26-0.48-1.26-1.12c0-0.64,0.54-1.12,1.26-1.12c0.72,0,1.26,0.48,1.26,1.12C126.88,144.54,126.34,145.02,125.62,145.02z
		 M121.26,143.72c-0.7,0-1.25-0.49-1.25-1.11s0.55-1.12,1.25-1.12c0.73,0,1.29,0.48,1.29,1.12
		C122.55,143.24,121.99,143.72,121.26,143.72z M93.59,143.19h-4.8l4.44-4.64v-13.51h4.37v14.37L93.59,143.19z M91.52,142.02h1.61
		l3.31-3.13V126.2h-2.04v12.81L91.52,142.02z M117.12,142.88c-0.71,0-1.26-0.49-1.26-1.12c0-0.63,0.56-1.12,1.26-1.12
		c0.73,0,1.29,0.48,1.29,1.12C118.41,142.4,117.86,142.88,117.12,142.88z M85.08,141.11h-2.94v-15.6h2.94V141.11z M83.31,139.94h0.6
		v-13.27h-0.6V139.94z M74.93,139.07l-2.47-2.51l2.57-1.41v-14.31h2.94v14.63l0.53,0.11l-0.53,0.52v0.37h-0.38L74.93,139.07z
		 M74.37,136.84l0.57,0.58l0.97-0.96h-0.86L74.37,136.84z M76.2,135.12l0.6,0.12v-13.23h-0.6V135.12z M88.65,138.43h-2.23v-12.93
		h2.23V138.43z M60.85,138.22l1.22-12.49l7.92-4.28l0.2,10.93L60.85,138.22z M63.17,126.46l-0.93,9.51l6.76-4.23l-0.15-8.35
		L63.17,126.46z M70.09,137.18l-1.93-1.77l3.52-2.28l2.2,1.1L70.09,137.18z M70.06,135.57l0.09,0.08l1.09-0.84L70.06,135.57z
		 M81.17,133.17h-2.46v-10.59h2.46V133.17z M79.88,132.01H80v-8.26h-0.13V132.01z M84.56,120.55c-0.74,0-1.35-0.6-1.35-1.35
		c0-0.8,0.59-1.42,1.35-1.42c0.46,0,0.86,0.21,1.13,0.55c-0.1-0.18-0.16-0.39-0.16-0.59c0-0.8,0.74-1.34,1.43-1.34
		c0.62,0,1.48,0.51,1.48,1.34c0,0.74-0.82,1.37-1.48,1.37c-0.44,0-0.87-0.24-1.14-0.59c0.11,0.2,0.18,0.44,0.18,0.69
		C85.98,119.94,85.34,120.55,84.56,120.55z M84.56,118.94c-0.13,0-0.18,0.16-0.18,0.26c0,0.07,0.05,0.18,0.18,0.18
		c0.17,0,0.26-0.12,0.26-0.18C84.81,119.08,84.71,118.94,84.56,118.94z M86.95,117.56c-0.12,0-0.26,0.09-0.26,0.17
		c0.01,0.07,0.17,0.2,0.26,0.2c0.09-0.01,0.29-0.15,0.32-0.23C87.24,117.68,87.06,117.56,86.95,117.56z M83.79,116.8
		c-0.75,0-1.43-0.68-1.43-1.42c0-0.84,0.64-1.52,1.43-1.52c0.85,0,1.51,0.66,1.51,1.52C85.31,116.14,84.6,116.8,83.79,116.8z
		 M83.79,115.03c-0.13,0-0.26,0.14-0.26,0.35c0,0.08,0.14,0.26,0.26,0.26c0.22,0,0.34-0.19,0.34-0.26
		C84.14,115.17,84.01,115.03,83.79,115.03z M86.46,115.2c-0.76,0-1.48-0.69-1.48-1.43c0-0.82,0.68-1.51,1.48-1.51
		c0.77,0,1.6,0.61,1.6,1.51C88.06,114.49,87.27,115.2,86.46,115.2z M86.46,113.43c-0.13,0-0.32,0.14-0.32,0.34
		c0.01,0.08,0.19,0.26,0.32,0.26c0.18,0,0.41-0.19,0.44-0.28C86.9,113.59,86.65,113.43,86.46,113.43z M82.81,113.6
		c-0.9,0-1.57-0.84-1.57-1.6c0-0.91,0.71-1.65,1.57-1.65c0.92,0,1.65,0.72,1.65,1.65C84.46,112.75,83.78,113.6,82.81,113.6z
		 M82.81,111.52c-0.22,0-0.4,0.22-0.4,0.48c0,0.18,0.2,0.43,0.4,0.43c0.3,0,0.48-0.28,0.48-0.43
		C83.3,111.72,83.09,111.52,82.81,111.52z M89.22,113.51c-0.79,0-1.43-0.64-1.43-1.42c0-0.83,0.63-1.48,1.43-1.48
		c0.86,0,1.51,0.64,1.51,1.48C90.73,112.88,90.07,113.51,89.22,113.51z M89.22,111.77c-0.13,0-0.26,0.11-0.26,0.32
		c0,0.35,0.6,0.31,0.6,0C89.57,111.8,89.33,111.77,89.22,111.77z M85.87,111.68c-0.82,0-1.59-0.76-1.59-1.57
		c0-0.93,0.71-1.68,1.59-1.68c0.81,0,1.72,0.69,1.72,1.68C87.59,110.91,86.74,111.68,85.87,111.68z M85.87,109.6
		c-0.2,0-0.42,0.21-0.42,0.51c0,0.14,0.23,0.4,0.42,0.4c0.24,0,0.53-0.28,0.55-0.4C86.42,109.84,86.12,109.6,85.87,109.6z
		 M89.09,109.77c-0.87,0-1.6-0.72-1.6-1.57c0-0.91,0.72-1.66,1.6-1.66c0.94,0,1.65,0.71,1.65,1.66
		C90.73,109.08,90.01,109.77,89.09,109.77z M89.09,107.72c-0.21,0-0.43,0.18-0.43,0.49c0,0.21,0.21,0.4,0.43,0.4
		c0.31,0,0.48-0.21,0.48-0.4C89.57,107.91,89.38,107.72,89.09,107.72z"/>
	<path fill-rule="evenodd" clip-rule="evenodd" fill="#009EE0" d="M213.91,141.59c0-1.07,0.22-3.35,0.22-4.95
		c0-42.14-34.32-76.45-76.45-76.45c-27.51,0-53.22,14.96-66.81,39.44l2.98,4.36l5.8,2.36v4.76l11.7-10.94l6.19,3.2v17.44l7.03-5.28
		l5.52,2.08v12.91l9.39,5.65l4.36-2.05l2.05,4.13l4.13-2.08l2.3,2.92h3.52c4.5,5.88,11.76,7.79,19.32,8.86
		c5.68,0,3.52,4.05,9.2,4.05l26.13-6.27l3.51,2.53l7.79-2.76v-2.76l5.51-1.07l3.74,3.12L213.91,141.59z M213.91,141.59"/>
	<path fill-rule="evenodd" clip-rule="evenodd" fill="#FFEC00" d="M195.06,187.38c-14.29,16.12-35.24,25.68-57.09,25.68
		c-21.88,0-43.07-9.56-57.35-25.68c6.67-4.05,13.84-5.88,21.26-6.41c7.26,0.22,14.43,4.05,20.08,4.1c5.37-0.28,10.49-3.2,15.75-3.66
		c4.84,0.23,9.2,3.43,15.53,3.6c6.72-0.08,13.75-4.75,22.47-4.05C182.38,182.4,189.63,184.09,195.06,187.38L195.06,187.38z
		 M195.06,187.38"/>
	<path fill="#FFFFFF" d="M137.97,213.86c-4.78,0-9.55-0.46-14.23-1.35c-0.02,0-0.05,0-0.07,0.01l0-0.02
		c-16.74-3.21-32.41-11.9-43.65-24.58l-0.64-0.72l0.82-0.5c6.23-3.79,13.3-5.93,21.62-6.53c3.97,0.13,7.72,1.22,11.36,2.28
		c3.19,0.93,6.2,1.81,8.79,1.84c2.64-0.14,5.34-1,7.96-1.82c2.5-0.79,5.09-1.61,7.71-1.84c2.44,0.11,4.62,0.86,6.92,1.65
		c2.65,0.91,5.4,1.86,8.7,1.95c2.76-0.04,5.68-0.91,8.77-1.85c4.05-1.23,8.66-2.62,13.75-2.21c7.35,1.58,14.3,3.26,19.7,6.53
		l0.82,0.5l-0.64,0.72C181.05,204.4,160.02,213.86,137.97,213.86z M128.13,211.59c6.09,0.82,12.32,0.86,18.38,0.18
		c-0.91-0.27-1.78-0.56-2.63-0.86c-2.04-0.71-4.14-1.44-6.89-1.69c-2.63,0.26-4.75,0.98-6.8,1.69
		C129.52,211.14,128.84,211.37,128.13,211.59z M151.47,210.99v0.04c7.68-1.4,15.06-3.97,21.91-7.6c-1.01-0.06-2.01-0.1-2.98-0.1
		c-2.48,0.19-4.68,0.96-7.01,1.77c-3.15,1.1-6.42,2.27-10.83,2.06c-0.09,0-0.17,0-0.26,0c-3.42,0-5.92-0.86-8.35-1.71
		c-2.04-0.7-4.14-1.43-6.87-1.67c-2.64,0.23-4.78,0.97-6.84,1.68c-2.43,0.84-4.94,1.69-8.37,1.69c-0.08,0-0.17,0-0.25,0
		c-4.42,0.2-7.66-0.96-10.82-2.07c-2.33-0.81-4.52-1.58-7.06-1.76c-0.44,0-0.9,0-1.36,0.01c6.72,3.54,13.96,6.1,21.44,7.54
		c2.19-0.24,3.98-0.84,5.86-1.49c2.14-0.73,4.35-1.48,7.32-1.77c3.09,0.27,5.29,1.03,7.42,1.77
		C146.62,210.16,148.7,210.88,151.47,210.99z M103.8,201.73c2.81,0.2,5.21,1.05,7.53,1.86c3.02,1.05,6.11,2.13,10.27,1.98
		c0.08,0,0.15,0,0.24,0c3.2,0,5.48-0.78,7.88-1.61c2.16-0.75,4.39-1.51,7.37-1.76c3.07,0.25,5.27,1.02,7.4,1.76
		c2.4,0.83,4.68,1.62,7.87,1.62c0.08,0,0.16,0,0.24,0c4.17,0.23,7.26-0.91,10.27-1.98c2.33-0.81,4.73-1.65,7.49-1.86
		c0.02,0,0.04,0,0.06,0c1.81,0,3.65,0.11,5.5,0.3c1.64-0.95,3.24-1.96,4.81-3.04c-3.53-0.78-7.15-1.2-10.29-1.09
		c-2.5,0.19-4.7,0.96-7.03,1.77c-3.15,1.1-6.42,2.27-10.83,2.06c-0.09,0-0.17,0-0.26,0c-3.42,0-5.92-0.86-8.35-1.71
		c-2.04-0.7-4.14-1.43-6.87-1.67c-2.64,0.23-4.78,0.97-6.84,1.68c-2.43,0.84-4.94,1.69-8.37,1.69c-0.08,0-0.17,0-0.25,0
		c-4.34,0.22-7.65-0.96-10.82-2.07c-2.33-0.81-4.52-1.58-7.06-1.76c-2.81-0.08-5.94,0.23-9.01,0.82c1.61,1.1,3.27,2.14,4.96,3.12
		C101.13,201.73,102.54,201.73,103.8,201.73z M102.98,196.29c0.28,0,0.56,0.01,0.84,0.01c2.79,0.2,5.19,1.05,7.51,1.86
		c3.02,1.05,6.11,2.17,10.27,1.98c0.08,0,0.15,0,0.24,0c3.2,0,5.48-0.78,7.88-1.61c2.16-0.75,4.39-1.51,7.37-1.76
		c3.07,0.25,5.27,1.02,7.4,1.76c2.46,0.85,4.78,1.6,8.1,1.62c4.17,0.2,7.26-0.91,10.27-1.98c2.33-0.81,4.73-1.65,7.49-1.86
		c3.78-0.11,8.03,0.44,12.12,1.46c1.17-0.86,2.32-1.74,3.44-2.67c-5.07-1.75-10.75-2.59-15.47-2.53c-2.51,0.19-4.71,0.96-7.04,1.77
		c-3.16,1.1-6.5,2.24-10.83,2.06c-0.06,0-0.11,0-0.17,0c-3.46,0-5.98-0.86-8.42-1.71c-2.04-0.7-4.16-1.43-6.89-1.67
		c-2.65,0.24-4.79,0.97-6.86,1.68c-2.44,0.83-4.96,1.69-8.43,1.69c-0.06,0-0.11,0-0.17,0c-4.34,0.22-7.65-0.96-10.82-2.07
		c-2.33-0.81-4.52-1.58-7.06-1.76c-4.22-0.19-9.53,0.64-14.37,2.14c1.16,0.96,2.35,1.88,3.57,2.76
		C96.29,196.71,99.8,196.29,102.98,196.29z M102.73,190.94c0.37,0,0.73,0.01,1.09,0.02c2.78,0.2,5.18,1.05,7.5,1.86
		c3.02,1.05,6.11,2.17,10.27,1.98c0.05,0,0.1,0,0.15,0c3.23,0,5.53-0.79,7.95-1.62c2.16-0.74,4.39-1.5,7.38-1.76
		c3.07,0.25,5.28,1.01,7.41,1.75c2.42,0.84,4.71,1.62,7.94,1.62c0.05,0,0.11,0,0.15,0c4.14,0.23,7.25-0.91,10.27-1.98
		c2.33-0.81,4.73-1.65,7.49-1.86c5.16-0.2,11.51,0.92,16.98,2.93c0.94-0.82,1.87-1.65,2.77-2.52c-6.41-3.12-14.33-4.39-19.67-4.24
		c-2.5,0.19-4.7,0.96-7.04,1.77c-3.15,1.1-6.42,2.28-10.83,2.06c-3.55,0.06-6.11-0.85-8.59-1.71c-2.04-0.7-4.16-1.43-6.89-1.67
		c-2.65,0.24-4.79,0.97-6.86,1.68c-2.44,0.83-4.96,1.69-8.43,1.69c-0.06,0-0.11,0-0.17,0c-4.34,0.23-7.65-0.96-10.82-2.07
		c-2.33-0.81-4.52-1.58-7.06-1.76c-6.04-0.14-13.18,1.29-18.65,3.75c0.92,0.89,1.87,1.75,2.83,2.59
		C92.78,191.87,98.21,190.94,102.73,190.94z M171.21,185.53c5.27,0,13.3,1.2,20.1,4.66c0.85-0.84,1.68-1.72,2.49-2.61
		c-5.08-2.83-11.54-4.38-18.26-5.83c-4.71-0.41-8.94,0.91-13.05,2.16c-3.2,0.96-6.22,1.88-9.24,1.91c-3.58-0.1-6.57-1.13-9.21-2.03
		c-2.2-0.76-4.27-1.47-6.37-1.57c-2.33,0.2-4.73,0.96-7.25,1.76c-2.72,0.86-5.52,1.74-8.41,1.9c-2.87-0.03-5.98-0.94-9.28-1.9
		c-3.54-1.03-7.19-2.1-10.87-2.21c-7.61,0.56-14.18,2.46-19.99,5.81c0.65,0.72,1.32,1.42,2,2.1c6.91-3.26,14.84-4.22,19.95-4.14
		c2.78,0.2,5.19,1.05,7.51,1.86c3.02,1.05,6.11,2.14,10.27,1.98c0.05,0,0.1,0,0.15,0c3.23,0,5.53-0.79,7.95-1.62
		c2.16-0.74,4.39-1.5,7.38-1.76c3.07,0.25,5.28,1.01,7.41,1.75c2.42,0.84,4.71,1.62,7.94,1.62c0.05,0,0.11,0,0.15,0
		c4.14,0.2,7.25-0.91,10.27-1.98c2.33-0.81,4.73-1.65,7.49-1.86C170.62,185.53,170.91,185.53,171.21,185.53z"/>
	<path fill="#1B1918" d="M80.41,185.85l-0.7-1.45c6.24-3.04,17.93-5.9,24.02-5.9c0.15,0,0.3,0,0.45,0.01
		c2.76,0.21,5.15,1.05,7.46,1.85c3.03,1.05,6.15,2.17,10.3,1.98c0.08,0,0.17,0,0.26,0c3.19,0,5.47-0.77,7.87-1.6
		c2.16-0.74,4.39-1.5,7.36-1.75c0.01,0,0.01,0,0.02,0c3.04,0.25,5.3,1.01,7.48,1.74c2.45,0.82,4.77,1.59,7.88,1.61
		c0.05,0,0.11,0,0.16,0c0.33,0,0.64,0.01,0.96,0.01c3.66-0.02,6.53-1.02,9.3-1.98c2.29-0.79,4.64-1.62,7.34-1.85c0,0,0.01,0,0.01,0
		c0,0.01,0.06,0,0.09-0.01c0.18,0,0.36-0.01,0.54-0.01c6.34,0,18.47,2.52,24.82,5.84l-0.75,1.42c-6.15-3.21-17.91-5.65-24.02-5.65
		c-0.18,0-0.34,0.01-0.51,0.01c-2.49,0.2-4.63,0.96-6.89,1.77c-2.85,1.02-5.8,2.07-9.75,2.07c-0.09,0.01-0.19,0.01-0.28,0
		c-0.29,0-0.59-0.01-0.89-0.02c-0.07,0-0.12,0-0.18,0c-0.05,0-0.09,0-0.14,0c-3.41,0-5.91-0.86-8.33-1.69
		c-2.04-0.7-4.14-1.42-6.87-1.65c-2.64,0.23-4.78,0.96-6.84,1.67c-2.49,0.85-5.11,1.77-8.62,1.68c-4.41,0.22-7.68-0.96-10.85-2.06
		c-2.31-0.81-4.49-1.57-7.01-1.76c-0.14-0.01-0.28-0.01-0.42-0.01C97.83,180.1,86.48,182.88,80.41,185.85z"/>
	<path fill="#1B1918" d="M134.37,231.81c-51.44,0-93.29-41.78-93.29-93.11c0-9.03,1.4-18.77,3.94-27.44l1.49,0.44
		c-2.5,8.53-3.88,18.13-3.88,27.01c0,50.48,41.15,91.55,91.74,91.55V231.81z"/>
	<path fill-rule="evenodd" clip-rule="evenodd" fill="#FFFFFF" d="M128.8,234.97c-1.07,2.28-3.4,3.91-5.46,4.05
		c0.31-4.16,2.98-5.48,4.17-6.05C128.41,233.62,129.47,233.62,128.8,234.97L128.8,234.97z M127.08,232.24
		c-1.8,1.83-5.99-0.03-7.29-0.93c1.1-1.86,5.34-1.68,6.64-1.77C127.02,230.41,127,231.17,127.08,232.24L127.08,232.24z
		 M126.41,228.08c-1.68-0.03-4.25-2.48-4.05-6.47c3.49,0.76,4.08,3.63,4.69,3.88C127.67,226.39,126.32,227.01,126.41,228.08
		L126.41,228.08z M126.41,228.08"/>
	<path fill="#1B1918" d="M122.49,239.86l0.07-0.89c0.19-2.57,1.21-4.17,2.29-5.18c-2.14-0.01-4.53-1.16-5.5-1.84l-0.59-0.41
		l0.37-0.63c1.16-1.95,4.68-2.06,6.56-2.12c0.05-0.01,0.09-0.01,0.14-0.01c-0.79-0.18-1.61-0.68-2.32-1.43
		c-1.34-1.44-2.05-3.54-1.93-5.79l0.05-0.91l0.9,0.2c2.83,0.61,3.99,2.49,4.61,3.5c0.12,0.19,0.26,0.42,0.32,0.49l0.21,0.08
		l0.02,0.13c0.64,0.93,0.12,1.74-0.19,2.22c-0.21,0.33-0.33,0.54-0.32,0.74l0.07,0.86l-0.34-0.01l0.17,0.24
		c0.63,0.94,0.69,1.79,0.75,2.68l0.13,0.56c0.19,0.14,0.39,0.24,0.57,0.33c0.59,0.31,1.81,0.94,0.97,2.63
		c-1.16,2.48-3.67,4.32-6.1,4.49L122.49,239.86z M127.46,233.86c-1.03,0.52-2.68,1.59-3.21,4.2c1.56-0.48,3.08-1.8,3.84-3.42
		l0.01-0.02c0.13-0.26,0.13-0.36,0.13-0.37l0,0c-0.04,0-0.26-0.11-0.41-0.19C127.7,234,127.58,233.93,127.46,233.86z M121.07,231.15
		c1.48,0.75,3.96,1.55,5.21,0.75v-0.01c-0.05-0.65-0.07-1.1-0.28-1.55c-0.08,0-0.17,0-0.25,0.01
		C124.62,230.38,122.27,230.45,121.07,231.15z M123.15,222.67c0.12,1.42,0.64,2.71,1.5,3.63c0.4,0.43,0.8,0.7,1.15,0.84
		c0.12-0.27,0.26-0.51,0.39-0.7c0.08-0.13,0.21-0.33,0.24-0.43c-0.23-0.2-0.41-0.49-0.62-0.84
		C125.33,224.4,124.65,223.29,123.15,222.67z"/>
	<path fill-rule="evenodd" clip-rule="evenodd" fill="#FFFFFF" d="M37.21,145.16c-2.19-1.27-3.6-3.74-3.57-5.8
		c4.11,0.68,5.21,3.43,5.66,4.67C38.6,144.88,38.51,145.95,37.21,145.16L37.21,145.16z M40.06,143.67
		c-1.63-1.94,0.56-5.96,1.58-7.17c1.74,1.27,1.21,5.46,1.21,6.75C41.92,143.76,41.12,143.67,40.06,143.67L40.06,143.67z
		 M44.28,143.33c0.17-1.66,2.82-3.99,6.78-3.49c-1.04,3.43-3.94,3.77-4.27,4.38C45.85,144.74,45.34,143.36,44.28,143.33
		L44.28,143.33z M44.28,143.33"/>
	<g>
		<defs>
			<rect id="SVGID_1_" x="32.86" y="53.23" width="214.29" height="193.55"/>
		</defs>
		<clipPath id="SVGID_2_">
			<use xlink:href="#SVGID_1_"  overflow="visible"/>
		</clipPath>
		<path clip-path="url(#SVGID_2_)" fill="#1B1918" d="M37.98,146.21c-0.33,0-0.71-0.11-1.16-0.38c-2.36-1.36-3.99-4.03-3.95-6.48
			l0.01-0.9l0.89,0.15c2.53,0.41,4.04,1.55,4.95,2.7c0.21-2.13,1.57-4.41,2.33-5.3l0.46-0.56l0.59,0.42
			c1.81,1.31,1.65,4.63,1.56,6.62c0,0.04,0,0.08-0.01,0.13c0.25-0.73,0.79-1.46,1.55-2.06c1.54-1.24,3.7-1.78,5.95-1.5l0.91,0.12
			l-0.26,0.88c-0.84,2.78-2.81,3.79-3.86,4.33c-0.2,0.11-0.46,0.23-0.53,0.29l-0.11,0.21l-0.14,0.02c-0.97,0.51-1.72-0.06-2.17-0.41
			c-0.27-0.21-0.51-0.39-0.73-0.39l-0.84-0.03l0.03-0.27l-0.24,0.12c-0.99,0.54-1.84,0.52-2.78,0.52l-0.53,0.08
			c-0.15,0.18-0.26,0.37-0.37,0.53C39.28,145.48,38.83,146.21,37.98,146.21z M34.53,140.37c0.36,1.59,1.55,3.24,3.08,4.12l0.01,0.01
			c0.26,0.16,0.36,0.17,0.36,0.17c-0.01-0.03,0.13-0.26,0.23-0.41c0.07-0.11,0.14-0.23,0.22-0.34
			C38,142.85,37.09,141.12,34.53,140.37z M45.25,142.82c0.27,0.14,0.49,0.32,0.68,0.46c0.12,0.08,0.31,0.23,0.41,0.27
			c0.22-0.2,0.53-0.36,0.88-0.54c0.82-0.41,1.98-1.01,2.71-2.46c-1.45,0.01-2.78,0.44-3.77,1.22
			C45.72,142.13,45.43,142.5,45.25,142.82z M40.47,142.9c0.65-0.01,1.13,0.01,1.61-0.16c0-0.1,0.01-0.21,0.01-0.32
			c0.06-1.18,0.16-3.42-0.42-4.64C40.78,139.21,39.8,141.61,40.47,142.9z"/>
	</g>
	<path fill-rule="evenodd" clip-rule="evenodd" fill="#FFFFFF" d="M134.06,226.08c-0.84-2.98-2.62-3.6-4.98-0.7
		c-1.77-0.53-3.74,0.17-5.29,2.3c-0.45,2.22,0.48,4.81,2.22,5.34c0.22,2.53,1.99,3.74,3.37,2.98L134.06,226.08z M136.25,232.05
		c-0.67,1.43-2.5,4.64-6.19,5.57c-0.68-1.92-0.45-2.98,0.09-4.72c-0.53-0.79-1.61-1.24-1.15-4.08c1.6-1.52,2.75-0.53,3.82-0.22
		c0.22-0.9,1.15-2.28,2.22-2.89C136.25,228,137.04,229.43,136.25,232.05L136.25,232.05z M136.11,233.03
		c1.52,0.93,3.6,2.36,4.98,5.12"/>
	<g>
		<defs>
			<rect id="SVGID_3_" x="32.86" y="53.23" width="214.29" height="193.55"/>
		</defs>
		<clipPath id="SVGID_4_">
			<use xlink:href="#SVGID_3_"  overflow="visible"/>
		</clipPath>
		<path clip-path="url(#SVGID_4_)" fill="#1B1918" d="M129.57,238.54l-0.24-0.67c-0.12-0.32-0.21-0.63-0.28-0.92
			c-0.59,0.12-1.21,0.04-1.78-0.27c-1.02-0.54-1.74-1.69-1.98-3.11c-1.92-0.96-2.74-3.78-2.27-6.05l0.13-0.3
			c1.53-2.11,3.58-3.12,5.63-2.72c1.23-1.39,2.4-2,3.52-1.74c0.97,0.2,1.72,0.97,2.24,2.31c0.03-0.02,0.07-0.04,0.1-0.06l0.7-0.41
			l0.38,0.72c1.27,2.42,2.14,4.07,1.27,6.94l-0.04,0.11c-0.03,0.06-0.06,0.13-0.09,0.2c1.73,1.09,3.61,2.59,4.93,5.22l-1.39,0.69
			c-1.13-2.26-2.77-3.59-4.3-4.56c-1.1,1.72-2.95,3.71-5.84,4.43L129.57,238.54z M130.43,235.63c0.01,0.32,0.06,0.65,0.15,1.01
			c2.74-0.99,4.25-3.42,4.94-4.88c0.59-1.98,0.16-3.14-0.74-4.89c-0.18,0.18-0.34,0.37-0.5,0.57l-0.9,2.12l-0.08-0.02L130.43,235.63
			z M124.52,228c-0.32,1.89,0.48,3.9,1.72,4.28l0.5,0.15l0.05,0.52c0.12,1.32,0.71,2.08,1.22,2.36c0.2,0.1,0.48,0.19,0.79,0.1
			l0.06-0.13c0.02-0.74,0.19-1.43,0.42-2.23c-0.02-0.02-0.04-0.05-0.07-0.07c-0.75-0.86-1.39-1.83-0.99-4.29l0.04-0.26l0.19-0.18
			c1.59-1.51,2.97-1.03,3.91-0.66c0.15-0.32,0.34-0.64,0.57-0.96l0.29-0.61c-0.33-1.01-0.77-1.63-1.24-1.73
			c-0.53-0.06-1.4,0.46-2.32,1.58l-0.33,0.4l-0.5-0.15C127.32,225.66,125.77,226.36,124.52,228z M129.73,229.21
			c-0.23,1.72,0.21,2.22,0.67,2.75c0.01,0.01,0.02,0.02,0.03,0.03l1.39-2.94C131.05,228.74,130.52,228.55,129.73,229.21z
			 M141.17,231.81v-1.56c50.58,0,91.74-41.07,91.74-91.55c0-8.88-1.38-18.48-3.88-27.01l1.49-0.44c2.54,8.67,3.94,18.42,3.94,27.44
			C234.46,190.03,192.61,231.81,141.17,231.81z M35.4,141.51c-0.31-9.3,1.37-20.28,4.4-28.67l1.46,0.53
			c-2.96,8.22-4.62,18.98-4.31,28.08L35.4,141.51z M46.88,141.34c-0.37-7.76,0.61-19.34,4.47-28.54l1.43,0.6
			c-3.76,8.96-4.71,20.27-4.35,27.86L46.88,141.34z"/>
	</g>
	<path fill-rule="evenodd" clip-rule="evenodd" fill="#FFFFFF" d="M146.74,234.97c1.07,2.28,3.41,3.91,5.46,4.05
		c-0.31-4.16-2.98-5.48-4.16-6.05C147.14,233.62,146.07,233.62,146.74,234.97L146.74,234.97z M148.46,232.24
		c1.8,1.83,5.99-0.03,7.28-0.93c-1.09-1.86-5.31-1.68-6.63-1.77C148.51,230.41,148.54,231.17,148.46,232.24L148.46,232.24z
		 M149.13,228.08c1.69-0.03,4.25-2.48,4.08-6.47c-3.51,0.76-4.1,3.63-4.72,3.88C147.9,226.39,149.22,227.01,149.13,228.08
		L149.13,228.08z M149.13,228.08"/>
	<path fill="#1B1918" d="M153.04,239.86l-0.9-0.06c-2.43-0.18-4.94-2.02-6.1-4.49c-0.84-1.69,0.38-2.32,0.97-2.63
		c0.18-0.09,0.38-0.19,0.57-0.33l0.1-0.16l0.02-0.37c0.06-0.91,0.11-1.76,0.76-2.71l0.16-0.24l-0.34,0.01l0.07-0.86
		c0.01-0.2-0.11-0.41-0.31-0.75c-0.3-0.48-0.81-1.29-0.2-2.2l0.13-0.2l0.22-0.09l0,0c-0.05,0,0.1-0.23,0.21-0.41
		c0.63-1.01,1.79-2.9,4.64-3.51l0.9-0.2l0.04,0.92c0.09,2.25-0.63,4.36-1.98,5.79c-0.7,0.75-1.52,1.24-2.3,1.41
		c0.05,0,0.1,0,0.15,0.01c2.02,0.06,5.4,0.17,6.55,2.12l0.37,0.62l-0.59,0.41c-0.96,0.68-3.35,1.84-5.5,1.85
		c1.07,1.01,2.09,2.61,2.29,5.18L153.04,239.86z M147.3,234.3c0.02,0.01,0.04,0.12,0.14,0.32l0.01,0.01
		c0.76,1.62,2.28,2.95,3.84,3.42c-0.52-2.6-2.18-3.67-3.2-4.2c-0.12,0.07-0.24,0.13-0.36,0.2
		C147.58,234.13,147.38,234.24,147.3,234.3z M149.26,231.89c1.25,0.84,3.73,0.01,5.21-0.74c-1.2-0.7-3.55-0.77-4.67-0.81
		c-0.09-0.01-0.18-0.01-0.26-0.01C149.33,230.79,149.31,231.24,149.26,231.89z M149.14,225.99c0.02,0.13,0.14,0.33,0.22,0.46
		c0.12,0.2,0.27,0.43,0.38,0.7c0.34-0.15,0.73-0.41,1.14-0.84c0.86-0.91,1.4-2.2,1.53-3.64c-1.51,0.62-2.2,1.73-2.68,2.51
		C149.53,225.5,149.35,225.78,149.14,225.99z"/>
	<path fill-rule="evenodd" clip-rule="evenodd" fill="#FFFFFF" d="M238.32,145.16c2.2-1.27,3.63-3.74,3.6-5.8
		c-4.13,0.68-5.23,3.43-5.68,4.67C236.95,144.88,237.03,145.95,238.32,145.16L238.32,145.16z M235.49,143.67
		c1.66-1.94-0.57-5.96-1.58-7.17c-1.71,1.24-1.21,5.46-1.18,6.75C233.66,143.76,234.41,143.67,235.49,143.67L235.49,143.67z
		 M231.27,143.33c-0.17-1.66-2.82-3.99-6.78-3.49c1.04,3.43,3.97,3.77,4.28,4.38C229.69,144.74,230.19,143.36,231.27,143.33
		L231.27,143.33z M231.27,143.33"/>
	<path fill="#1B1918" d="M237.56,146.21c-0.85,0-1.29-0.73-1.55-1.14c-0.11-0.18-0.22-0.37-0.37-0.54l-0.16-0.08h-0.37
		c-0.9-0.01-1.76,0.01-2.75-0.52l-0.26-0.14l0.03,0.3l-0.84,0.03c-0.23,0-0.46,0.18-0.73,0.39c-0.45,0.35-1.21,0.92-2.17,0.41
		l-0.21-0.12l-0.11-0.22c-0.01,0.06-0.25-0.08-0.45-0.19c-1.06-0.54-3.03-1.55-3.87-4.32l-0.27-0.88l0.91-0.12
		c2.26-0.28,4.41,0.26,5.95,1.49c0.79,0.63,1.35,1.39,1.59,2.14c0-0.02,0-0.04,0-0.06c-0.11-1.91-0.3-5.45,1.53-6.76l0.59-0.42
		l0.46,0.56c0.76,0.9,2.11,3.18,2.32,5.31c0.92-1.15,2.42-2.29,4.97-2.71l0.89-0.15l0.01,0.9c0.04,2.4-1.64,5.12-3.98,6.48
		C238.27,146.11,237.88,146.21,237.56,146.21z M237.12,143.91c0.08,0.12,0.15,0.23,0.22,0.34c0.08,0.14,0.2,0.34,0.27,0.41
		c0.02-0.02,0.12-0.06,0.31-0.17l0.01-0.01c1.54-0.89,2.75-2.54,3.1-4.13C238.46,141.11,237.54,142.85,237.12,143.91z M225.6,140.55
		c0.74,1.44,1.9,2.04,2.72,2.45c0.35,0.18,0.65,0.33,0.88,0.54c0.12-0.04,0.29-0.18,0.41-0.27c0.19-0.15,0.41-0.32,0.68-0.46
		c-0.18-0.32-0.47-0.69-0.92-1.04C228.38,140.99,227.04,140.56,225.6,140.55z M233.48,142.74c0.49,0.17,0.96,0.16,1.6,0.16
		c0.7-1.31-0.33-3.71-1.21-5.12c-0.58,1.27-0.45,3.64-0.39,4.77C233.48,142.61,233.48,142.67,233.48,142.74z"/>
	<path fill-rule="evenodd" clip-rule="evenodd" fill="#FFFFFF" d="M141.51,226.08c0.81-2.98,2.59-3.6,4.95-0.7
		c1.77-0.53,3.74,0.17,5.29,2.3c0.45,2.22-0.48,4.81-2.23,5.34c-0.22,2.53-1.99,3.74-3.38,2.98L141.51,226.08z M139.29,232.05
		c0.68,1.43,2.51,4.64,6.19,5.57c0.67-1.92,0.45-2.98-0.09-4.72c0.53-0.79,1.61-1.24,1.15-4.08c-1.61-1.52-2.76-0.53-3.82-0.22
		c-0.22-0.9-1.15-2.28-2.22-2.89C139.29,228,138.53,229.43,139.29,232.05L139.29,232.05z M139.43,233.03
		c-1.52,0.93-3.6,2.36-4.95,5.12"/>
	<g>
		<defs>
			<rect id="SVGID_5_" x="32.86" y="53.23" width="214.29" height="193.55"/>
		</defs>
		<clipPath id="SVGID_6_">
			<use xlink:href="#SVGID_5_"  overflow="visible"/>
		</clipPath>
		<path clip-path="url(#SVGID_6_)" fill="#1B1918" d="M145.98,238.54l-0.69-0.18c-2.88-0.72-4.73-2.71-5.84-4.43
			c-1.53,0.97-3.16,2.29-4.28,4.56l-1.4-0.69c1.3-2.64,3.18-4.13,4.91-5.22c-0.04-0.07-0.07-0.13-0.1-0.2l-0.04-0.11
			c-0.85-2.91,0.04-4.59,1.26-6.91l0.38-0.72l0.71,0.38c0.04,0.03,0.08,0.05,0.13,0.08c0.63-1.65,1.53-2.18,2.21-2.32
			c1.09-0.25,2.28,0.35,3.51,1.74c2.05-0.41,4.12,0.61,5.64,2.72l0.13,0.3c0.46,2.27-0.36,5.09-2.27,6.05
			c-0.24,1.42-0.96,2.56-1.97,3.11c-0.57,0.31-1.2,0.39-1.78,0.27c-0.07,0.29-0.16,0.59-0.27,0.91L145.98,238.54z M140.02,231.77
			c0.7,1.46,2.23,3.88,4.94,4.87c0.09-0.36,0.14-0.69,0.15-1.01l-2.85-6.11l-0.11,0.03l-0.13-0.53l-0.7-1.49
			c-0.17-0.24-0.37-0.46-0.57-0.67C139.87,228.62,139.46,229.8,140.02,231.77z M146.73,235.42c0.33,0.09,0.61,0,0.81-0.1
			c0.51-0.27,1.1-1.04,1.22-2.36l0.05-0.52l0.5-0.15c1.24-0.38,2.04-2.39,1.72-4.28c-1.25-1.65-2.82-2.33-4.34-1.88l-0.5,0.15
			l-0.33-0.4c-0.92-1.12-1.72-1.65-2.31-1.58c-0.46,0.1-0.89,0.72-1.21,1.73l0.33,0.72c0.2,0.28,0.36,0.57,0.5,0.85
			c0.94-0.39,2.31-0.85,3.91,0.66l0.19,0.18l0.04,0.27c0.39,2.46-0.24,3.43-0.99,4.29c-0.02,0.02-0.05,0.05-0.07,0.07
			c0.24,0.79,0.4,1.5,0.42,2.24L146.73,235.42z M143.75,229.03l1.38,2.95c0.01-0.01,0.01-0.02,0.02-0.03
			c0.46-0.53,0.9-1.03,0.67-2.75C145.03,228.56,144.49,228.74,143.75,229.03z M240.14,141.51l-1.55-0.06
			c0.3-9.09-1.35-19.85-4.32-28.08l1.46-0.53C238.77,121.25,240.45,132.23,240.14,141.51z M228.69,141.34l-1.55-0.07
			c0.34-7.62-0.64-18.94-4.38-27.86l1.43-0.6C228.04,121.96,229.04,133.55,228.69,141.34z"/>
		<path clip-path="url(#SVGID_6_)" fill="#1B1918" d="M137.77,218.88c-45.33,0-82.21-36.88-82.21-82.21
			c0-45.33,36.88-82.21,82.21-82.21s82.21,36.88,82.21,82.21C219.98,182,183.1,218.88,137.77,218.88z M137.77,56.19
			c-44.38,0-80.48,36.1-80.48,80.48s36.1,80.48,80.48,80.48s80.48-36.1,80.48-80.48S182.14,56.19,137.77,56.19z"/>
	</g>
	<path fill="#1B1918" d="M137.85,213.66c-42.59,0-77.24-34.65-77.24-77.24c0-42.59,34.65-77.24,77.24-77.24s77.24,34.65,77.24,77.24
		C215.1,179.01,180.45,213.66,137.85,213.66z M137.85,60.76c-41.72,0-75.65,33.94-75.65,75.65c0,41.71,33.94,75.65,75.65,75.65
		s75.65-33.94,75.65-75.65C213.51,94.7,179.57,60.76,137.85,60.76z"/>
	<path fill="#1B1918" d="M188.52,185.75l-1.55-11.69l0.04-0.15l6.76-25.45l-1.34-0.49l-4.65,21.66l-1.57-0.34l4.82-22.47v-0.97
		l-3.56,2.07l-0.75,14.77l-1.6-0.08l0.74-14.62l-1.83-0.15l0.13-1.6l2.64,0.21l5.83-3.38v3.28l1.81,0.65l8.12-2.38v-2.4l5.29-1.99
		l2.63,2.86l2.96-2.05l0.91,1.32l-3.49,2.41l-6.88,29.91l-1.57-0.37l6.92-30.09l-1.46-1.59l-7.4,37.75l-1.58-0.31l7.37-37.55
		l-2.12,0.79v2.48l-0.11,0.04l-7.51,39.43L188.52,185.75z M188.6,174.16l1.31,9.91l5.3-0.32l7.12-37.39l-6.88,2.02L188.6,174.16z
		 M79.03,184.08l-5.75-44.07l-12.04-2.55l0.33-1.58l12.07,2.56l3.89-2.9l5.7,5.45l11.7,3.3l4.87-1.79l0.07,0.76l0.21-0.31l4.42,3.07
		l-0.29,0.41l12.37,3.3l3.49-0.98l0.69-1.06l4.67,3.04l-0.27,0.42l0.01-0.01l7.66-1.27l-0.02-0.1l4.26-0.77l-0.03-0.86l5.42,3.74
		l12.17-0.53l0.01,0.12l5.6-3.97l3.45,4.16l6.61-1.42l0.34,1.58l-6.62,1.41l0.09,28.82l-4.8,0.32l-0.39-31.97l-3.26,2.31l3.48,31.22
		l-17.19-1.68l-0.4-29.05l-2.78-1.93l1.04,28.16l-1.6,0.06l-1.07-28.87l-2.69,0.49l3.72,28.57l-1.59,0.21l-3.7-28.4l-6.65,1.11
		l-1.31,31.41l-4.91-0.98l-0.17-32.55l-3.2,0.9l0.53-0.05l2.75,32.21l-1.6,0.14l-2.75-32.21l1-0.08l-0.19-0.06l-10.99-2.93
		l1.76,30.48l-1.6,0.1l-1.84-31.82l-0.12,0.17l-3.58-2.48l3.16,34.22l-1.6,0.15l-3.19-34.51l-2.41,0.89l4.81,33.13l-1.59,0.23
		l-4.81-33.15l-10.14-2.87l1.73,39.85l-1.6,0.07l-1.78-40.38l-0.34-0.2l-3.73-3.57l4.07,44.57l-1.6,0.14l-4.15-45.38l-2.01,1.5
		l5.78,44.31L79.03,184.08z M143.54,180.79l13.8,1.36l-3.26-29.16l-10.92,0.47L143.54,180.79z M121.61,181.71l1.79,0.36l1.25-29.41
		l-0.13-0.62l-3.07-2L121.61,181.71z M160.53,150.37l0.36,30.3l1.61-0.11l-0.08-27.91L160.53,150.37z"/>
	<path fill-rule="evenodd" clip-rule="evenodd" fill="#FFFFFF" d="M174.11,133.86l-10.71-0.14v9.62h-1.15v-10.55l12.09-4.89
		L174.11,133.86z M173.58,133.63l-5.15-3.07l-3.74,3.23 M173.41,128.82l-4.45,4.5l-4.64-1.38L173.41,128.82z M181.9,133.86
		l10.69-0.14v9.62h1.15v-10.55l-12.07-4.89L181.9,133.86z M182.43,133.63l5.12-3.07l3.74,3.23 M182.58,128.82l4.44,4.5l4.67-1.38"/>
	<path fill="#1B1918" d="M193.75,143.87h-1.15c-0.3,0-0.53-0.24-0.53-0.53v-9.08l-0.5,0.01c-0.16,0.09-0.36,0.1-0.52,0.01
		l-9.13,0.12c0,0,0,0-0.01,0c-0.29,0-0.52-0.23-0.53-0.51l-0.23-5.96c-0.01-0.18,0.08-0.36,0.23-0.46c0.15-0.1,0.34-0.13,0.51-0.06
		l9.92,4.03c0.07,0.01,0.13,0.04,0.19,0.07l1.96,0.8c0.2,0.08,0.33,0.28,0.33,0.5v10.55C194.28,143.63,194.04,143.87,193.75,143.87z
		 M193.13,142.8h0.08v-9.65l-1.56-0.63l-0.76,0.23l0.53,0.46l1.17-0.01c0,0,0,0,0.01,0c0.14,0,0.27,0.06,0.38,0.15
		c0.1,0.1,0.16,0.24,0.16,0.38V142.8z M185.42,132.46l-1.38,0.83l2.17-0.03L185.42,132.46z M189.66,133.1l-0.43,0.13l0.56-0.01
		L189.66,133.1z M182.26,129.26l0.14,3.75l2.24-1.34L182.26,129.26z M186.37,131.89l0.81,0.82l1.53-0.45l-1.21-1.05L186.37,131.89z
		 M189.72,131.73l0.2,0.17l0.13-0.04L189.72,131.73z M183.86,129.35l1.74,1.76l1.05-0.63L183.86,129.35z M163.39,143.87h-1.15
		c-0.3,0-0.53-0.24-0.53-0.53v-10.55c0-0.22,0.13-0.41,0.33-0.5l2.04-0.83c0.02-0.01,0.05-0.02,0.07-0.03l0.02-0.01l9.96-4.04
		c0.17-0.07,0.36-0.05,0.51,0.06c0.15,0.11,0.24,0.28,0.23,0.46l-0.22,5.96c-0.01,0.29-0.25,0.51-0.53,0.51c0,0,0,0-0.01,0
		l-9.16-0.12c-0.16,0.08-0.37,0.07-0.52-0.01l-0.5-0.01v9.08C163.93,143.63,163.69,143.87,163.39,143.87z M162.78,142.8h0.08v-9.08
		c0-0.14,0.06-0.28,0.16-0.38c0.1-0.1,0.24-0.15,0.38-0.15c0,0,0,0,0.01,0l1.17,0.01l0.53-0.46l-0.75-0.23l-1.58,0.64V142.8z
		 M169.77,133.26l2.19,0.03l-1.4-0.83L169.77,133.26z M166.18,133.22l0.57,0.01l-0.43-0.13L166.18,133.22z M171.34,131.67l2.26,1.35
		l0.14-3.78L171.34,131.67z M167.28,132.26l1.52,0.45l0.81-0.82l-1.13-0.67L167.28,132.26z M169.66,130.67l0.73,0.44l1.03-1.04
		L169.66,130.67z"/>
	<path fill="#1B1918" d="M199.71,121.21h-1.38c-0.3,0-0.55-0.25-0.55-0.55v-9.21l-15.96-0.17c-0.14,0-0.28-0.06-0.39-0.17
		s-0.16-0.25-0.15-0.39l0.14-7.17c0-0.18,0.09-0.34,0.24-0.44c0.14-0.1,0.33-0.12,0.5-0.06l17.75,6.55
		c0.22,0.08,0.36,0.28,0.36,0.52v10.55C200.26,120.96,200.01,121.21,199.71,121.21z M198.88,120.11h0.28v-9.61l-3.67-1.36
		c-0.05,0.07-0.12,0.14-0.21,0.18l-0.88,0.42l0.43,0.58l3.51,0.04c0.3,0,0.54,0.25,0.54,0.55V120.11z M193.22,110.3l0.22,0
		l-0.06-0.08L193.22,110.3z M187.47,110.24l2.72,0.03l-0.8-0.98L187.47,110.24z M182.38,110.19l3.89,0.04l-1.28-2.11l-2.42,1.69
		c-0.06,0.04-0.13,0.07-0.2,0.09L182.38,110.19z M190.4,108.79l0.96,1.18l1.35-0.65l-0.91-1.23L190.4,108.79z M185.9,107.49
		l1.07,1.77l1.71-0.85l-1.48-1.82L185.9,107.49z M193.38,108.36l0.35,0.47l0.41-0.19L193.38,108.36z M182.49,104.34l-0.08,4.24
		l2.01-1.41l-1.48-2.43c-0.05-0.08-0.07-0.17-0.08-0.26L182.49,104.34z M188.64,106.61l1.05,1.3l1.04-0.52L188.64,106.61z
		 M184.43,105.06l0.9,1.49l1.08-0.76L184.43,105.06z M158.27,121.21h-1.37c-0.3,0-0.55-0.25-0.55-0.55v-10.55
		c0-0.23,0.14-0.44,0.36-0.52l17.72-6.55c0.16-0.06,0.36-0.04,0.5,0.06c0.15,0.1,0.24,0.26,0.24,0.44l0.17,7.17
		c0,0.15-0.05,0.29-0.15,0.4c-0.11,0.11-0.25,0.17-0.39,0.17l-15.97,0.17v9.21C158.83,120.96,158.58,121.21,158.27,121.21z
		 M157.45,120.11h0.27v-9.2c0-0.3,0.25-0.55,0.54-0.55l3.52-0.04l0.41-0.57l-0.9-0.43c-0.08-0.04-0.15-0.1-0.2-0.17l-3.64,1.35
		V120.11z M163.21,110.23l-0.05,0.07l0.2,0L163.21,110.23z M166.92,109.6l-0.54,0.67l2.73-0.03l-1.21-0.6L166.92,109.6z
		 M170.59,109.75l-0.29,0.48l3.92-0.04l-0.01-0.28L170.59,109.75z M164.2,109.48l1.01,0.49l0.35-0.43L164.2,109.48z M171.25,108.68
		l1.2,0.05l-0.86-0.6L171.25,108.68z M168.18,108.55l1.81,0.08l0.69-1.13l-1.3-0.91l-1.48,1.82L168.18,108.55z M172.16,107.19
		l2.03,1.41l-0.09-4.25l-0.36,0.13c0,0.09-0.03,0.18-0.08,0.27L172.16,107.19z M164.55,108.4l0.93,0.04l-0.7-0.35L164.55,108.4z
		 M165.84,107.39l1.04,0.51l1.04-1.28L165.84,107.39z M170.16,105.8l1.09,0.76l0.92-1.5L170.16,105.8z"/>
	<path fill="#1B1918" d="M192.36,100.24h-2.19v-9.93h-9.12v-5.86l11.31,5.13V100.24z M191.24,99.17h0.06l-0.06-8.93V99.17z
		 M187.77,89.24h1.27l-1.8-0.82l0.68,0.65L187.77,89.24z M184.37,89.24h2.17l-1.01-0.97L184.37,89.24z M182.12,89.24h1.09
		l-1.09-2.42V89.24z M183.19,86.59l0.73,1.62l1.01-0.83L183.19,86.59z M182.12,86.11v0.04l0.04-0.02L182.12,86.11z M165.84,100.24
		h-2.23V89.58l0.31-0.14l11.03-4.99v5.86h-9.11V100.24z M164.68,99.17h0.09v-8.94l-0.09,0.04V99.17z M172.76,89.24h1.12v-2.46
		L172.76,89.24z M169.77,89.24h1.84l-0.82-0.68L169.77,89.24z M166.95,89.24h1.26l-0.13-0.16l0.68-0.66L166.95,89.24z M171.72,87.95
		l0.33,0.27l0.32-0.7L171.72,87.95z"/>
	<path fill="#1B1918" d="M161.74,144.72c-19.88-8.18-61.57-55.63-67.03-70.72l1.22-0.44c5.4,14.93,46.64,61.87,66.3,69.97
		L161.74,144.72z M193.07,143.68c-15.63-4.67-76-60.29-79.82-79.7l1.27-0.25c3.7,18.79,64.34,74.35,78.92,78.71L193.07,143.68z
		 M157.18,122.28c-15.73-8.59-43.63-40.66-48.93-56.25l1.23-0.42c5.12,15.05,33.12,47.23,48.33,55.53L157.18,122.28z M198.43,121.14
		c-16.69-7.55-57.39-40.92-63.36-60.25l1.24-0.39c5.77,18.67,46.57,52.18,62.65,59.46L198.43,121.14z M163.43,100.41
		c-11.01-6.49-26.47-24.81-33.76-40.02l1.17-0.56c7.07,14.76,22.61,33.2,33.25,39.47L163.43,100.41z M190.45,99.85
		c-17.35-12.11-28.85-23.81-36.2-36.83l1.13-0.64c7.25,12.85,18.62,24.41,35.81,36.4L190.45,99.85z"/>
	<path fill-rule="evenodd" clip-rule="evenodd" fill="#FFFFFF" d="M178.13,76.5l-3.26,9.31v47.39c-3.83,24.86-7.6,49.7-11.34,74.54
		c9.48-3.43,18.29-8.47,26.61-14.91l-8.72-59.63V85.82L178.13,76.5z M178.13,76.5"/>
	<path fill="#1B1918" d="M162.73,208.73l0.16-1.08c4.53-30.05,8.03-53.03,11.34-74.53l-0.01-47.41l0.04-0.11l3.87-11.05l3.94,11.27
		v47.4l8.77,59.91l-0.3,0.23c-8.67,6.71-17.44,11.62-26.79,15.01L162.73,208.73z M175.52,85.92v47.29
		c-3.28,21.34-6.74,44.03-11.19,73.54c8.73-3.29,16.96-7.94,25.11-14.2l-8.66-59.25l-0.01-47.38l-2.64-7.46L175.52,85.92z"/>
	<path fill-rule="evenodd" clip-rule="evenodd" fill="#FFFFFF" d="M181.22,85.11h-6.41 M181.22,90.01h-6.41 M181.22,97.43h-6.41
		 M181.22,103.39h-6.41 M181.22,111.1h-6.41 M181.22,118.22h-6.41 M181.22,125.95h-6.41 M181.22,133.83h-6.41 M182.77,142.99h-9.7
		 M184.21,155h-12.6 M185.98,167.91h-16.29 M188.34,182.91h-20.7 M179.62,199.95H164.8l5.43,5.04 M165.02,200.09l23.01-17.19
		l-17.81-14.68l13.7-13.22l-10.32-12.09l7.09-9.03l-5.88-7.57l5.88-7.57l-5.18-7.39l5.18-7.88l-5.65-5.96l5.83-7.73l-5.52-4.28
		 M183.84,196.58l-16.29-13.67l17.81-14.68L171.69,155l10.33-12.09l-7.11-9.03l5.88-7.57l-5.88-7.57l5.2-7.39l-5.2-7.88l5.65-5.96
		l-5.83-7.73l5.52-4.28"/>
	<path fill="#1B1918" d="M169.79,205.47l-6.64-6.16h1.85l11.16-8.34l-9.61-8.07l10.23-8.44l-7.52-6.2l0.44-0.42v-0.57h0.59
		l6.58-6.36l-6.06-5.86l6.15-7.21l-3.58-4.2h-0.3v-0.35l-0.31-0.37l0.31-0.39v-0.18h0.15l3.75-4.79l-2.9-3.68l2.9-3.73l-2.98-3.84
		l2.98-3.84l-2.88-3.7l0.72-1.03v-0.18h0.13l2.07-2.94l-2.01-2.88h-0.18v-0.26l-0.08-0.12l0.08-0.13v-0.78h0.52l1.69-2.58
		l-2.95-4.47l2.83-2.98l-2.71-2.86l2.8-3.71l-3.16-4.19l2.91-2.26l-1.79-1.39l0.2-0.25h-0.33v-1.3h6.41v1.3h-0.78l0.2,0.25
		l-1.79,1.39l2.91,2.26l-0.54,0.72v0.28h-0.21l-2.4,3.19l2.21,2.93h0.4v0.54l0.18,0.24l-0.18,0.19v0.33h-0.31l-2.22,2.34l2.2,2.32
		h0.33v0.36l0.29,0.31l-0.29,0.44v0.2h-0.13l-2.51,3.83l1.71,2.58h0.94v1.3h-0.6l-2.02,2.88l2.05,2.94h0.57v0.82l0.27,0.39
		l-2.88,3.7l2.19,2.83h0.41l0.07,0.62l0.31,0.4l-2.98,3.84l2.35,3.02h0.26v0.33l0.29,0.38l-0.29,0.37v0.22h-0.18l-2.42,3.09
		l3.77,4.79h0.37v0.47l0.08,0.11l-0.08,0.1v0.62h-0.53l-3.58,4.2l6.15,7.21l-6.08,5.86l6.57,6.36h0.68v0.65l0.36,0.34l-7.52,6.2
		l10.27,8.47l-10.84,8.09l6.02,5.04l-0.84,1l-6.25-5.25l-10.01,7.48h12.46v1.29h-13.17l4.22,3.91L169.79,205.47z M169.34,183.56
		l7.88,6.62l8.85-6.62H169.34z M169.37,182.26h16.85l-8.43-6.95L169.37,182.26z M171.66,168.57l6.13,5.06l6.14-5.06H171.66z
		 M172.16,167.27h11.28l-5.64-5.45L172.16,167.27z M173.3,155.65l4.5,4.36l4.51-4.36H173.3z M173.1,154.36h9.41l-4.7-5.52
		L173.1,154.36z M175.08,143.64l2.72,3.19l2.72-3.19H175.08z M174.87,142.35h5.87l-2.94-3.73L174.87,142.35z M176.19,134.48
		l1.6,2.04l1.6-2.04H176.19z M176.27,133.17h3.04l-1.52-1.96L176.27,133.17z M175.86,126.6l1.93,2.49l1.93-2.49H175.86z
		 M176.42,125.3h2.74l-1.37-1.76L176.42,125.3z M175.81,118.87l1.98,2.55l1.98-2.55H175.81z M176.53,117.56h2.53l-1.26-1.81
		L176.53,117.56z M176.58,111.75l1.22,1.74l1.23-1.74H176.58z M176.88,110.45h1.84l-0.92-1.4L176.88,110.45z M176.05,104.05
		l1.75,2.64l1.74-2.64H176.05z M176.49,102.74h2.61l-1.3-1.37L176.49,102.74z M176.47,98.08l1.32,1.4l1.33-1.4H176.47z M176.4,96.78
		h2.79l-1.4-1.85L176.4,96.78z M176.21,90.66l1.59,2.11l1.59-2.11H176.21z M176.33,89.36h2.94l-1.47-1.14L176.33,89.36z
		 M176.74,85.76l1.05,0.82l1.05-0.82H176.74z"/>
</g>
</svg>
